<svg width="53" height="53" viewBox="0 0 53 53" fill="none" xmlns="http://www.w3.org/2000/svg">
<path fill-rule="evenodd" clip-rule="evenodd" d="M26.5 0C26.5 0 26.5903 2.83455 27.27 5.66177C27.6698 7.32461 28.2734 8.98491 29.1825 10.0645C30.1809 11.2501 31.7691 11.9982 33.3022 12.4686C35.5387 13.1548 37.6579 13.25 37.6579 13.25C37.6579 13.25 35.5387 13.3452 33.3022 14.0314C31.7691 14.5018 30.1809 15.2499 29.1825 16.4355C28.2734 17.5151 27.6698 19.1754 27.27 20.8382C26.5903 23.6655 26.5 26.5 26.5 26.5C26.5 26.5 26.4097 23.6655 25.73 20.8382C25.3302 19.1754 24.7266 17.5151 23.8175 16.4355C22.8191 15.2499 21.2309 14.5018 19.6978 14.0314C17.4613 13.3452 15.3421 13.25 15.3421 13.25C15.3421 13.25 17.4614 13.1548 19.6978 12.4686C21.2309 11.9982 22.8191 11.2501 23.8175 10.0645C24.7266 8.98491 25.3302 7.32461 25.73 5.66177C26.4097 2.83455 26.5 0 26.5 0ZM26.5 8.28007C26.124 9.26718 25.629 10.242 24.9648 11.0307C24.1326 12.019 23.0208 12.7321 21.88 13.25C23.0208 13.7679 24.1326 14.481 24.9648 15.4693C25.629 16.258 26.124 17.2328 26.5 18.2199C26.876 17.2328 27.371 16.258 28.0352 15.4693C28.8674 14.481 29.9792 13.7679 31.12 13.25C29.9792 12.7321 28.8674 12.019 28.0352 11.0307C27.371 10.242 26.876 9.26718 26.5 8.28007Z" fill="#FDE4FA"/>
<path fill-rule="evenodd" clip-rule="evenodd" d="M26.5 26.5C26.5 26.5 26.5903 29.3345 27.27 32.1618C27.6698 33.8246 28.2734 35.4849 29.1825 36.5645C30.1809 37.7501 31.7691 38.4982 33.3022 38.9686C35.5387 39.6548 37.6579 39.75 37.6579 39.75C37.6579 39.75 35.5387 39.8452 33.3022 40.5314C31.7691 41.0018 30.1809 41.7499 29.1825 42.9355C28.2734 44.0151 27.6698 45.6754 27.27 47.3382C26.5903 50.1655 26.5 53 26.5 53C26.5 53 26.4097 50.1655 25.73 47.3382C25.3302 45.6754 24.7266 44.0151 23.8175 42.9355C22.8191 41.7499 21.2309 41.0018 19.6978 40.5314C17.4614 39.8452 15.3421 39.75 15.3421 39.75C15.3421 39.75 17.4614 39.6548 19.6978 38.9686C21.2309 38.4982 22.8191 37.7501 23.8175 36.5645C24.7266 35.4849 25.3302 33.8246 25.73 32.1618C26.4097 29.3345 26.5 26.5 26.5 26.5ZM26.5 34.7801C26.124 35.7672 25.629 36.742 24.9648 37.5307C24.1326 38.519 23.0208 39.2321 21.88 39.75C23.0208 40.2679 24.1326 40.981 24.9648 41.9693C25.629 42.758 26.124 43.7328 26.5 44.7199C26.876 43.7328 27.371 42.758 28.0352 41.9693C28.8674 40.981 29.9792 40.2679 31.12 39.75C29.9792 39.2321 28.8674 38.519 28.0352 37.5307C27.371 36.742 26.876 35.7672 26.5 34.7801Z" fill="#FDE4FA"/>
<path fill-rule="evenodd" clip-rule="evenodd" d="M0 26.5C0 26.5 2.83455 26.4097 5.66177 25.73C7.32461 25.3302 8.98491 24.7266 10.0645 23.8175C11.2501 22.8191 11.9982 21.2309 12.4686 19.6978C13.1548 17.4613 13.25 15.3421 13.25 15.3421C13.25 15.3421 13.3452 17.4614 14.0314 19.6978C14.5018 21.2309 15.2499 22.8191 16.4355 23.8175C17.5151 24.7266 19.1754 25.3302 20.8382 25.73C23.6655 26.4097 26.5 26.5 26.5 26.5C26.5 26.5 23.6655 26.5903 20.8382 27.27C19.1754 27.6698 17.5151 28.2734 16.4355 29.1825C15.2499 30.1809 14.5018 31.7691 14.0314 33.3022C13.3452 35.5386 13.25 37.6579 13.25 37.6579C13.25 37.6579 13.1548 35.5386 12.4686 33.3022C11.9982 31.7691 11.2501 30.1809 10.0645 29.1825C8.98491 28.2734 7.32461 27.6698 5.66177 27.27C2.83455 26.5903 0 26.5 0 26.5ZM8.28007 26.5C9.26718 26.876 10.242 27.371 11.0307 28.0352C12.019 28.8674 12.7321 29.9792 13.25 31.12C13.7679 29.9792 14.481 28.8674 15.4693 28.0352C16.258 27.371 17.2328 26.876 18.2199 26.5C17.2328 26.124 16.258 25.629 15.4693 24.9648C14.481 24.1326 13.7679 23.0208 13.25 21.88C12.7321 23.0208 12.019 24.1326 11.0307 24.9648C10.242 25.629 9.26718 26.124 8.28007 26.5Z" fill="#FDE4FA"/>
<path fill-rule="evenodd" clip-rule="evenodd" d="M26.5 26.5C26.5 26.5 29.3345 26.4097 32.1618 25.73C33.8246 25.3302 35.4849 24.7266 36.5645 23.8175C37.7501 22.8191 38.4982 21.2309 38.9686 19.6978C39.6548 17.4613 39.75 15.3421 39.75 15.3421C39.75 15.3421 39.8452 17.4613 40.5314 19.6978C41.0018 21.2309 41.7499 22.8191 42.9355 23.8175C44.0151 24.7266 45.6754 25.3302 47.3382 25.73C50.1655 26.4097 53 26.5 53 26.5C53 26.5 50.1655 26.5903 47.3382 27.27C45.6754 27.6698 44.0151 28.2734 42.9355 29.1825C41.7499 30.1809 41.0018 31.7691 40.5314 33.3022C39.8452 35.5386 39.75 37.6579 39.75 37.6579C39.75 37.6579 39.6548 35.5386 38.9686 33.3022C38.4982 31.7691 37.7501 30.1809 36.5645 29.1825C35.4849 28.2734 33.8246 27.6698 32.1618 27.27C29.3345 26.5903 26.5 26.5 26.5 26.5ZM34.7801 26.5C35.7672 26.876 36.742 27.371 37.5307 28.0352C38.519 28.8674 39.2321 29.9792 39.75 31.1199C40.2679 29.9792 40.981 28.8674 41.9693 28.0352C42.758 27.371 43.7328 26.876 44.7199 26.5C43.7328 26.124 42.758 25.629 41.9693 24.9648C40.981 24.1326 40.2679 23.0208 39.75 21.88C39.2321 23.0208 38.519 24.1326 37.5307 24.9648C36.742 25.629 35.7672 26.124 34.7801 26.5Z" fill="#FDE4FA"/>
</svg>
