<svg width="137" height="43" viewBox="0 0 137 43" fill="none" xmlns="http://www.w3.org/2000/svg">
<path d="M94 5C94 2.23858 96.2386 0 99 0H132C134.761 0 137 2.23858 137 5V38C137 40.7614 134.761 43 132 43H99C96.2386 43 94 40.7614 94 38V5Z" fill="#FFFAFA"/>
<path fill-rule="evenodd" clip-rule="evenodd" d="M132 5H99V38H132V5ZM99 0C96.2386 0 94 2.23858 94 5V38C94 40.7614 96.2386 43 99 43H132C134.761 43 137 40.7614 137 38V5C137 2.23858 134.761 0 132 0H99Z" fill="#F976BD"/>
<path fill-rule="evenodd" clip-rule="evenodd" d="M123.91 11.9393C124.496 12.5251 124.496 13.4749 123.91 14.0607L117.5 20.4706L123.939 26.9099C124.525 27.4957 124.525 28.4454 123.939 29.0312C123.354 29.617 122.404 29.617 121.818 29.0312L115.379 22.5919L109.061 28.9099C108.475 29.4957 107.525 29.4957 106.939 28.9099C106.354 28.3241 106.354 27.3744 106.939 26.7886L113.257 20.4706L106.969 14.182C106.383 13.5962 106.383 12.6464 106.969 12.0607C107.555 11.4749 108.504 11.4749 109.09 12.0607L115.379 18.3492L121.789 11.9393C122.374 11.3536 123.324 11.3536 123.91 11.9393Z" fill="#F976BD"/>
<path d="M0 5C0 2.23858 2.23858 0 5 0H38C40.7614 0 43 2.23858 43 5V38C43 40.7614 40.7614 43 38 43H5C2.23858 43 0 40.7614 0 38V5Z" fill="#FFFAFA"/>
<path fill-rule="evenodd" clip-rule="evenodd" d="M38 5H5V38H38V5ZM5 0C2.23858 0 0 2.23858 0 5V38C0 40.7614 2.23858 43 5 43H38C40.7614 43 43 40.7614 43 38V5C43 2.23858 40.7614 0 38 0H5Z" fill="#F976BD"/>
<path fill-rule="evenodd" clip-rule="evenodd" d="M10 30.5C10 29.6716 10.6716 29 11.5 29L31.5 29C32.3284 29 33 29.6716 33 30.5C33 31.3284 32.3284 32 31.5 32L11.5 32C10.6716 32 10 31.3284 10 30.5Z" fill="#F976BD"/>
<path d="M47 5C47 2.23858 49.2386 0 52 0H85C87.7614 0 90 2.23858 90 5V38C90 40.7614 87.7614 43 85 43H52C49.2386 43 47 40.7614 47 38V5Z" fill="#FFFAFA"/>
<path fill-rule="evenodd" clip-rule="evenodd" d="M85 5H52V38H85V5ZM52 0C49.2386 0 47 2.23858 47 5V38C47 40.7614 49.2386 43 52 43H85C87.7614 43 90 40.7614 90 38V5C90 2.23858 87.7614 0 85 0H52Z" fill="#F976BD"/>
<path d="M59.3 33H77.7C78.9684 33 80 31.8538 80 30.4444V12.5556C80 11.1462 78.9684 10 77.7 10H59.3C58.0316 10 57 11.1462 57 12.5556V30.4444C57 31.8538 58.0316 33 59.3 33ZM59.3 30.4444V15.1111H77.7L77.7011 30.4444H59.3Z" fill="#F976BD"/>
</svg>
