<svg width="1408" height="781" viewBox="0 0 1408 781" fill="none" xmlns="http://www.w3.org/2000/svg">
<path d="M0 40C0 17.9086 17.9086 0 40 0H1368C1390.09 0 1408 17.9086 1408 40V741C1408 763.091 1390.09 781 1368 781H40C17.9086 781 0 763.091 0 741V40Z" fill="#F976BD"/>
<path d="M0 76L0 40C0 40 0.448963 49.7123 5.28916 53.6725C10.1294 57.6327 22 58 22 58C22 58 10.1294 58.3673 5.28916 62.3275C0.448963 66.2877 0 76 0 76Z" fill="#FFA6D6"/>
<path d="M0 111V75C0 75 0.448963 84.7123 5.28916 88.6725C10.1294 92.6327 22 93 22 93C22 93 10.1294 93.3673 5.28916 97.3275C0.448963 101.288 0 111 0 111Z" fill="#FFA6D6"/>
<path d="M0 146V110C0 110 0.448963 119.712 5.28916 123.673C10.1294 127.633 22 128 22 128C22 128 10.1294 128.367 5.28916 132.327C0.448963 136.288 0 146 0 146Z" fill="#FFA6D6"/>
<path d="M0 181V145C0 145 0.448963 154.712 5.28916 158.672C10.1294 162.633 22 163 22 163C22 163 10.1294 163.367 5.28916 167.327C0.448963 171.288 0 181 0 181Z" fill="#FFA6D6"/>
<path d="M0 216V180C0 180 0.448963 189.712 5.28916 193.672C10.1294 197.633 22 198 22 198C22 198 10.1294 198.367 5.28916 202.327C0.448963 206.288 0 216 0 216Z" fill="#FFA6D6"/>
<path d="M0 251L0 215C0 215 0.448963 224.712 5.28916 228.672C10.1294 232.633 22 233 22 233C22 233 10.1294 233.367 5.28916 237.327C0.448963 241.288 0 251 0 251Z" fill="#FFA6D6"/>
<path d="M0 286L0 250C0 250 0.448963 259.712 5.28916 263.672C10.1294 267.633 22 268 22 268C22 268 10.1294 268.367 5.28916 272.327C0.448963 276.288 0 286 0 286Z" fill="#FFA6D6"/>
<path d="M0 321V285C0 285 0.448963 294.712 5.28916 298.673C10.1294 302.633 22 303 22 303C22 303 10.1294 303.367 5.28916 307.327C0.448963 311.288 0 321 0 321Z" fill="#FFA6D6"/>
<path d="M0 356V320C0 320 0.448963 329.712 5.28916 333.673C10.1294 337.633 22 338 22 338C22 338 10.1294 338.367 5.28916 342.327C0.448963 346.288 0 356 0 356Z" fill="#FFA6D6"/>
<path d="M0 391V355C0 355 0.448963 364.712 5.28916 368.673C10.1294 372.633 22 373 22 373C22 373 10.1294 373.367 5.28916 377.327C0.448963 381.288 0 391 0 391Z" fill="#FFA6D6"/>
<path d="M0 426V390C0 390 0.448963 399.712 5.28916 403.673C10.1294 407.633 22 408 22 408C22 408 10.1294 408.367 5.28916 412.327C0.448963 416.288 0 426 0 426Z" fill="#FFA6D6"/>
<path d="M0 461L0 425C0 425 0.448963 434.712 5.28916 438.673C10.1294 442.633 22 443 22 443C22 443 10.1294 443.367 5.28916 447.327C0.448963 451.288 0 461 0 461Z" fill="#FFA6D6"/>
<path d="M0 496L0 460C0 460 0.448963 469.712 5.28916 473.673C10.1294 477.633 22 478 22 478C22 478 10.1294 478.367 5.28916 482.327C0.448963 486.288 0 496 0 496Z" fill="#FFA6D6"/>
<path d="M0 531L0 495C0 495 0.448963 504.712 5.28916 508.673C10.1294 512.633 22 513 22 513C22 513 10.1294 513.367 5.28916 517.328C0.448963 521.288 0 531 0 531Z" fill="#FFA6D6"/>
<path d="M0 566V530C0 530 0.448963 539.712 5.28916 543.672C10.1294 547.633 22 548 22 548C22 548 10.1294 548.367 5.28916 552.328C0.448963 556.288 0 566 0 566Z" fill="#FFA6D6"/>
<path d="M0 601V565C0 565 0.448963 574.712 5.28916 578.672C10.1294 582.633 22 583 22 583C22 583 10.1294 583.367 5.28916 587.328C0.448963 591.288 0 601 0 601Z" fill="#FFA6D6"/>
<path d="M0 636V600C0 600 0.448963 609.712 5.28916 613.672C10.1294 617.633 22 618 22 618C22 618 10.1294 618.367 5.28916 622.328C0.448963 626.288 0 636 0 636Z" fill="#FFA6D6"/>
<path d="M0 671V635C0 635 0.448963 644.712 5.28916 648.672C10.1294 652.633 22 653 22 653C22 653 10.1294 653.367 5.28916 657.328C0.448963 661.288 0 671 0 671Z" fill="#FFA6D6"/>
<path d="M0 706L0 670C0 670 0.448963 679.712 5.28916 683.672C10.1294 687.633 22 688 22 688C22 688 10.1294 688.367 5.28916 692.328C0.448963 696.288 0 706 0 706Z" fill="#FFA6D6"/>
<path d="M0 741L0 705C0 705 0.448963 714.712 5.28916 718.672C10.1294 722.633 22 723 22 723C22 723 10.1294 723.367 5.28916 727.328C0.448963 731.288 0 741 0 741Z" fill="#FFA6D6"/>
<path d="M1408 76L1408 40C1408 40 1407.55 49.7123 1402.71 53.6725C1397.87 57.6327 1386 58 1386 58C1386 58 1397.87 58.3673 1402.71 62.3275C1407.55 66.2877 1408 76 1408 76Z" fill="#FFA6D6"/>
<path d="M1408 111V75C1408 75 1407.55 84.7123 1402.71 88.6725C1397.87 92.6327 1386 93 1386 93C1386 93 1397.87 93.3673 1402.71 97.3275C1407.55 101.288 1408 111 1408 111Z" fill="#FFA6D6"/>
<path d="M1408 146V110C1408 110 1407.55 119.712 1402.71 123.673C1397.87 127.633 1386 128 1386 128C1386 128 1397.87 128.367 1402.71 132.327C1407.55 136.288 1408 146 1408 146Z" fill="#FFA6D6"/>
<path d="M1408 181V145C1408 145 1407.55 154.712 1402.71 158.672C1397.87 162.633 1386 163 1386 163C1386 163 1397.87 163.367 1402.71 167.327C1407.55 171.288 1408 181 1408 181Z" fill="#FFA6D6"/>
<path d="M1408 216V180C1408 180 1407.55 189.712 1402.71 193.672C1397.87 197.633 1386 198 1386 198C1386 198 1397.87 198.367 1402.71 202.327C1407.55 206.288 1408 216 1408 216Z" fill="#FFA6D6"/>
<path d="M1408 251V215C1408 215 1407.55 224.712 1402.71 228.672C1397.87 232.633 1386 233 1386 233C1386 233 1397.87 233.367 1402.71 237.327C1407.55 241.288 1408 251 1408 251Z" fill="#FFA6D6"/>
<path d="M1408 286V250C1408 250 1407.55 259.712 1402.71 263.672C1397.87 267.633 1386 268 1386 268C1386 268 1397.87 268.367 1402.71 272.327C1407.55 276.288 1408 286 1408 286Z" fill="#FFA6D6"/>
<path d="M1408 321V285C1408 285 1407.55 294.712 1402.71 298.673C1397.87 302.633 1386 303 1386 303C1386 303 1397.87 303.367 1402.71 307.327C1407.55 311.288 1408 321 1408 321Z" fill="#FFA6D6"/>
<path d="M1408 356V320C1408 320 1407.55 329.712 1402.71 333.673C1397.87 337.633 1386 338 1386 338C1386 338 1397.87 338.367 1402.71 342.327C1407.55 346.288 1408 356 1408 356Z" fill="#FFA6D6"/>
<path d="M1408 391V355C1408 355 1407.55 364.712 1402.71 368.673C1397.87 372.633 1386 373 1386 373C1386 373 1397.87 373.367 1402.71 377.327C1407.55 381.288 1408 391 1408 391Z" fill="#FFA6D6"/>
<path d="M1408 426V390C1408 390 1407.55 399.712 1402.71 403.673C1397.87 407.633 1386 408 1386 408C1386 408 1397.87 408.367 1402.71 412.327C1407.55 416.288 1408 426 1408 426Z" fill="#FFA6D6"/>
<path d="M1408 461V425C1408 425 1407.55 434.712 1402.71 438.673C1397.87 442.633 1386 443 1386 443C1386 443 1397.87 443.367 1402.71 447.327C1407.55 451.288 1408 461 1408 461Z" fill="#FFA6D6"/>
<path d="M1408 496V460C1408 460 1407.55 469.712 1402.71 473.673C1397.87 477.633 1386 478 1386 478C1386 478 1397.87 478.367 1402.71 482.327C1407.55 486.288 1408 496 1408 496Z" fill="#FFA6D6"/>
<path d="M1408 531V495C1408 495 1407.55 504.712 1402.71 508.673C1397.87 512.633 1386 513 1386 513C1386 513 1397.87 513.367 1402.71 517.328C1407.55 521.288 1408 531 1408 531Z" fill="#FFA6D6"/>
<path d="M1408 566V530C1408 530 1407.55 539.712 1402.71 543.672C1397.87 547.633 1386 548 1386 548C1386 548 1397.87 548.367 1402.71 552.328C1407.55 556.288 1408 566 1408 566Z" fill="#FFA6D6"/>
<path d="M1408 601V565C1408 565 1407.55 574.712 1402.71 578.672C1397.87 582.633 1386 583 1386 583C1386 583 1397.87 583.367 1402.71 587.328C1407.55 591.288 1408 601 1408 601Z" fill="#FFA6D6"/>
<path d="M1408 636V600C1408 600 1407.55 609.712 1402.71 613.672C1397.87 617.633 1386 618 1386 618C1386 618 1397.87 618.367 1402.71 622.328C1407.55 626.288 1408 636 1408 636Z" fill="#FFA6D6"/>
<path d="M1408 671V635C1408 635 1407.55 644.712 1402.71 648.672C1397.87 652.633 1386 653 1386 653C1386 653 1397.87 653.367 1402.71 657.328C1407.55 661.288 1408 671 1408 671Z" fill="#FFA6D6"/>
<path d="M1408 706V670C1408 670 1407.55 679.712 1402.71 683.672C1397.87 687.633 1386 688 1386 688C1386 688 1397.87 688.367 1402.71 692.328C1407.55 696.288 1408 706 1408 706Z" fill="#FFA6D6"/>
<path d="M1408 741L1408 705C1408 705 1407.55 714.712 1402.71 718.672C1397.87 722.633 1386 723 1386 723C1386 723 1397.87 723.367 1402.71 727.328C1407.55 731.288 1408 741 1408 741Z" fill="#FFA6D6"/>
<path d="M38 0H74C74 0 64.2876 0.448963 60.3275 5.28916C56.3673 10.1294 56 22 56 22C56 22 55.6326 10.1294 51.6725 5.28916C47.7123 0.448963 38 0 38 0Z" fill="#FFA6D6"/>
<path d="M74 0H110C110 0 100.288 0.448963 96.3275 5.28916C92.3673 10.1294 92 22 92 22C92 22 91.6326 10.1294 87.6725 5.28916C83.7123 0.448963 74 0 74 0Z" fill="#FFA6D6"/>
<path d="M110 0H146C146 0 136.288 0.448963 132.327 5.28916C128.367 10.1294 128 22 128 22C128 22 127.633 10.1294 123.672 5.28916C119.712 0.448963 110 0 110 0Z" fill="#FFA6D6"/>
<path d="M146 0H182C182 0 172.288 0.448963 168.327 5.28916C164.367 10.1294 164 22 164 22C164 22 163.633 10.1294 159.673 5.28916C155.712 0.448963 146 0 146 0Z" fill="#FFA6D6"/>
<path d="M182 0H218C218 0 208.288 0.448963 204.327 5.28916C200.367 10.1294 200 22 200 22C200 22 199.633 10.1294 195.673 5.28916C191.712 0.448963 182 0 182 0Z" fill="#FFA6D6"/>
<path d="M218 0H254C254 0 244.288 0.448963 240.327 5.28916C236.367 10.1294 236 22 236 22C236 22 235.633 10.1294 231.673 5.28916C227.712 0.448963 218 0 218 0Z" fill="#FFA6D6"/>
<path d="M254 0H290C290 0 280.288 0.448963 276.327 5.28916C272.367 10.1294 272 22 272 22C272 22 271.633 10.1294 267.673 5.28916C263.712 0.448963 254 0 254 0Z" fill="#FFA6D6"/>
<path d="M290 0H326C326 0 316.288 0.448963 312.327 5.28916C308.367 10.1294 308 22 308 22C308 22 307.633 10.1294 303.673 5.28916C299.712 0.448963 290 0 290 0Z" fill="#FFA6D6"/>
<path d="M326 0H362C362 0 352.288 0.448963 348.327 5.28916C344.367 10.1294 344 22 344 22C344 22 343.633 10.1294 339.673 5.28916C335.712 0.448963 326 0 326 0Z" fill="#FFA6D6"/>
<path d="M362 0H398C398 0 388.288 0.448963 384.327 5.28916C380.367 10.1294 380 22 380 22C380 22 379.633 10.1294 375.673 5.28916C371.712 0.448963 362 0 362 0Z" fill="#FFA6D6"/>
<path d="M398 0H434C434 0 424.288 0.448963 420.327 5.28916C416.367 10.1294 416 22 416 22C416 22 415.633 10.1294 411.673 5.28916C407.712 0.448963 398 0 398 0Z" fill="#FFA6D6"/>
<path d="M434 0H470C470 0 460.288 0.448963 456.327 5.28916C452.367 10.1294 452 22 452 22C452 22 451.633 10.1294 447.673 5.28916C443.712 0.448963 434 0 434 0Z" fill="#FFA6D6"/>
<path d="M470 0H506C506 0 496.288 0.448963 492.327 5.28916C488.367 10.1294 488 22 488 22C488 22 487.633 10.1294 483.673 5.28916C479.712 0.448963 470 0 470 0Z" fill="#FFA6D6"/>
<path d="M506 0H542C542 0 532.288 0.448963 528.328 5.28916C524.367 10.1294 524 22 524 22C524 22 523.633 10.1294 519.672 5.28916C515.712 0.448963 506 0 506 0Z" fill="#FFA6D6"/>
<path d="M542 0H578C578 0 568.288 0.448963 564.327 5.28916C560.367 10.1294 560 22 560 22C560 22 559.633 10.1294 555.672 5.28916C551.712 0.448963 542 0 542 0Z" fill="#FFA6D6"/>
<path d="M578 0H614C614 0 604.288 0.448963 600.327 5.28916C596.367 10.1294 596 22 596 22C596 22 595.633 10.1294 591.672 5.28916C587.712 0.448963 578 0 578 0Z" fill="#FFA6D6"/>
<path d="M614 0H650C650 0 640.288 0.448963 636.327 5.28916C632.367 10.1294 632 22 632 22C632 22 631.633 10.1294 627.672 5.28916C623.712 0.448963 614 0 614 0Z" fill="#FFA6D6"/>
<path d="M650 0H686C686 0 676.288 0.448963 672.327 5.28916C668.367 10.1294 668 22 668 22C668 22 667.633 10.1294 663.672 5.28916C659.712 0.448963 650 0 650 0Z" fill="#FFA6D6"/>
<path d="M686 0H722C722 0 712.288 0.448963 708.327 5.28916C704.367 10.1294 704 22 704 22C704 22 703.633 10.1294 699.672 5.28916C695.712 0.448963 686 0 686 0Z" fill="#FFA6D6"/>
<path d="M722 0H758C758 0 748.288 0.448963 744.327 5.28916C740.367 10.1294 740 22 740 22C740 22 739.633 10.1294 735.672 5.28916C731.712 0.448963 722 0 722 0Z" fill="#FFA6D6"/>
<path d="M758 0H794C794 0 784.288 0.448963 780.327 5.28916C776.367 10.1294 776 22 776 22C776 22 775.633 10.1294 771.672 5.28916C767.712 0.448963 758 0 758 0Z" fill="#FFA6D6"/>
<path d="M794 0H830C830 0 820.288 0.448963 816.327 5.28916C812.367 10.1294 812 22 812 22C812 22 811.633 10.1294 807.672 5.28916C803.712 0.448963 794 0 794 0Z" fill="#FFA6D6"/>
<path d="M830 0H866C866 0 856.288 0.448963 852.327 5.28916C848.367 10.1294 848 22 848 22C848 22 847.633 10.1294 843.672 5.28916C839.712 0.448963 830 0 830 0Z" fill="#FFA6D6"/>
<path d="M866 0H902C902 0 892.288 0.448963 888.327 5.28916C884.367 10.1294 884 22 884 22C884 22 883.633 10.1294 879.672 5.28916C875.712 0.448963 866 0 866 0Z" fill="#FFA6D6"/>
<path d="M902 0H938C938 0 928.288 0.448963 924.327 5.28916C920.367 10.1294 920 22 920 22C920 22 919.633 10.1294 915.672 5.28916C911.712 0.448963 902 0 902 0Z" fill="#FFA6D6"/>
<path d="M938 0H974C974 0 964.288 0.448963 960.327 5.28916C956.367 10.1294 956 22 956 22C956 22 955.633 10.1294 951.672 5.28916C947.712 0.448963 938 0 938 0Z" fill="#FFA6D6"/>
<path d="M974 0H1010C1010 0 1000.29 0.448963 996.327 5.28916C992.367 10.1294 992 22 992 22C992 22 991.633 10.1294 987.672 5.28916C983.712 0.448963 974 0 974 0Z" fill="#FFA6D6"/>
<path d="M1010 0H1046C1046 0 1036.29 0.448963 1032.33 5.28916C1028.37 10.1294 1028 22 1028 22C1028 22 1027.63 10.1294 1023.67 5.28916C1019.71 0.448963 1010 0 1010 0Z" fill="#FFA6D6"/>
<path d="M1046 0H1082C1082 0 1072.29 0.448963 1068.33 5.28916C1064.37 10.1294 1064 22 1064 22C1064 22 1063.63 10.1294 1059.67 5.28916C1055.71 0.448963 1046 0 1046 0Z" fill="#FFA6D6"/>
<path d="M1082 0H1118C1118 0 1108.29 0.448963 1104.33 5.28916C1100.37 10.1294 1100 22 1100 22C1100 22 1099.63 10.1294 1095.67 5.28916C1091.71 0.448963 1082 0 1082 0Z" fill="#FFA6D6"/>
<path d="M1118 0H1154C1154 0 1144.29 0.448963 1140.33 5.28916C1136.37 10.1294 1136 22 1136 22C1136 22 1135.63 10.1294 1131.67 5.28916C1127.71 0.448963 1118 0 1118 0Z" fill="#FFA6D6"/>
<path d="M1154 0H1190C1190 0 1180.29 0.448963 1176.33 5.28916C1172.37 10.1294 1172 22 1172 22C1172 22 1171.63 10.1294 1167.67 5.28916C1163.71 0.448963 1154 0 1154 0Z" fill="#FFA6D6"/>
<path d="M1190 0H1226C1226 0 1216.29 0.448963 1212.33 5.28916C1208.37 10.1294 1208 22 1208 22C1208 22 1207.63 10.1294 1203.67 5.28916C1199.71 0.448963 1190 0 1190 0Z" fill="#FFA6D6"/>
<path d="M1226 0H1262C1262 0 1252.29 0.448963 1248.33 5.28916C1244.37 10.1294 1244 22 1244 22C1244 22 1243.63 10.1294 1239.67 5.28916C1235.71 0.448963 1226 0 1226 0Z" fill="#FFA6D6"/>
<path d="M1262 0H1298C1298 0 1288.29 0.448963 1284.33 5.28916C1280.37 10.1294 1280 22 1280 22C1280 22 1279.63 10.1294 1275.67 5.28916C1271.71 0.448963 1262 0 1262 0Z" fill="#FFA6D6"/>
<path d="M1298 0H1334C1334 0 1324.29 0.448963 1320.33 5.28916C1316.37 10.1294 1316 22 1316 22C1316 22 1315.63 10.1294 1311.67 5.28916C1307.71 0.448963 1298 0 1298 0Z" fill="#FFA6D6"/>
<path d="M1334 0H1370C1370 0 1360.29 0.448963 1356.33 5.28916C1352.37 10.1294 1352 22 1352 22C1352 22 1351.63 10.1294 1347.67 5.28916C1343.71 0.448963 1334 0 1334 0Z" fill="#FFA6D6"/>
<path d="M1370 781H1334C1334 781 1343.71 780.551 1347.67 775.711C1351.63 770.871 1352 759 1352 759C1352 759 1352.37 770.871 1356.33 775.711C1360.29 780.551 1370 781 1370 781Z" fill="#FFA6D6"/>
<path d="M1334 781H1298C1298 781 1307.71 780.551 1311.67 775.711C1315.63 770.871 1316 759 1316 759C1316 759 1316.37 770.871 1320.33 775.711C1324.29 780.551 1334 781 1334 781Z" fill="#FFA6D6"/>
<path d="M1298 781H1262C1262 781 1271.71 780.551 1275.67 775.711C1279.63 770.871 1280 759 1280 759C1280 759 1280.37 770.871 1284.33 775.711C1288.29 780.551 1298 781 1298 781Z" fill="#FFA6D6"/>
<path d="M1262 781H1226C1226 781 1235.71 780.551 1239.67 775.711C1243.63 770.871 1244 759 1244 759C1244 759 1244.37 770.871 1248.33 775.711C1252.29 780.551 1262 781 1262 781Z" fill="#FFA6D6"/>
<path d="M1226 781H1190C1190 781 1199.71 780.551 1203.67 775.711C1207.63 770.871 1208 759 1208 759C1208 759 1208.37 770.871 1212.33 775.711C1216.29 780.551 1226 781 1226 781Z" fill="#FFA6D6"/>
<path d="M1190 781H1154C1154 781 1163.71 780.551 1167.67 775.711C1171.63 770.871 1172 759 1172 759C1172 759 1172.37 770.871 1176.33 775.711C1180.29 780.551 1190 781 1190 781Z" fill="#FFA6D6"/>
<path d="M1154 781H1118C1118 781 1127.71 780.551 1131.67 775.711C1135.63 770.871 1136 759 1136 759C1136 759 1136.37 770.871 1140.33 775.711C1144.29 780.551 1154 781 1154 781Z" fill="#FFA6D6"/>
<path d="M1118 781H1082C1082 781 1091.71 780.551 1095.67 775.711C1099.63 770.871 1100 759 1100 759C1100 759 1100.37 770.871 1104.33 775.711C1108.29 780.551 1118 781 1118 781Z" fill="#FFA6D6"/>
<path d="M1082 781H1046C1046 781 1055.71 780.551 1059.67 775.711C1063.63 770.871 1064 759 1064 759C1064 759 1064.37 770.871 1068.33 775.711C1072.29 780.551 1082 781 1082 781Z" fill="#FFA6D6"/>
<path d="M1046 781H1010C1010 781 1019.71 780.551 1023.67 775.711C1027.63 770.871 1028 759 1028 759C1028 759 1028.37 770.871 1032.33 775.711C1036.29 780.551 1046 781 1046 781Z" fill="#FFA6D6"/>
<path d="M1010 781H974C974 781 983.712 780.551 987.672 775.711C991.633 770.871 992 759 992 759C992 759 992.367 770.871 996.328 775.711C1000.29 780.551 1010 781 1010 781Z" fill="#FFA6D6"/>
<path d="M974 781H938C938 781 947.712 780.551 951.672 775.711C955.633 770.871 956 759 956 759C956 759 956.367 770.871 960.328 775.711C964.288 780.551 974 781 974 781Z" fill="#FFA6D6"/>
<path d="M938 781H902C902 781 911.712 780.551 915.672 775.711C919.633 770.871 920 759 920 759C920 759 920.367 770.871 924.328 775.711C928.288 780.551 938 781 938 781Z" fill="#FFA6D6"/>
<path d="M902 781H866C866 781 875.712 780.551 879.672 775.711C883.633 770.871 884 759 884 759C884 759 884.367 770.871 888.328 775.711C892.288 780.551 902 781 902 781Z" fill="#FFA6D6"/>
<path d="M866 781H830C830 781 839.712 780.551 843.672 775.711C847.633 770.871 848 759 848 759C848 759 848.367 770.871 852.328 775.711C856.288 780.551 866 781 866 781Z" fill="#FFA6D6"/>
<path d="M830 781H794C794 781 803.712 780.551 807.672 775.711C811.633 770.871 812 759 812 759C812 759 812.367 770.871 816.328 775.711C820.288 780.551 830 781 830 781Z" fill="#FFA6D6"/>
<path d="M794 781H758C758 781 767.712 780.551 771.672 775.711C775.633 770.871 776 759 776 759C776 759 776.367 770.871 780.328 775.711C784.288 780.551 794 781 794 781Z" fill="#FFA6D6"/>
<path d="M758 781H722C722 781 731.712 780.551 735.672 775.711C739.633 770.871 740 759 740 759C740 759 740.367 770.871 744.328 775.711C748.288 780.551 758 781 758 781Z" fill="#FFA6D6"/>
<path d="M722 781H686C686 781 695.712 780.551 699.672 775.711C703.633 770.871 704 759 704 759C704 759 704.367 770.871 708.328 775.711C712.288 780.551 722 781 722 781Z" fill="#FFA6D6"/>
<path d="M686 781H650C650 781 659.712 780.551 663.672 775.711C667.633 770.871 668 759 668 759C668 759 668.367 770.871 672.328 775.711C676.288 780.551 686 781 686 781Z" fill="#FFA6D6"/>
<path d="M650 781H614C614 781 623.712 780.551 627.672 775.711C631.633 770.871 632 759 632 759C632 759 632.367 770.871 636.328 775.711C640.288 780.551 650 781 650 781Z" fill="#FFA6D6"/>
<path d="M614 781H578C578 781 587.712 780.551 591.672 775.711C595.633 770.871 596 759 596 759C596 759 596.367 770.871 600.328 775.711C604.288 780.551 614 781 614 781Z" fill="#FFA6D6"/>
<path d="M578 781H542C542 781 551.712 780.551 555.672 775.711C559.633 770.871 560 759 560 759C560 759 560.367 770.871 564.328 775.711C568.288 780.551 578 781 578 781Z" fill="#FFA6D6"/>
<path d="M542 781H506C506 781 515.712 780.551 519.672 775.711C523.633 770.871 524 759 524 759C524 759 524.367 770.871 528.328 775.711C532.288 780.551 542 781 542 781Z" fill="#FFA6D6"/>
<path d="M506 781H470C470 781 479.712 780.551 483.673 775.711C487.633 770.871 488 759 488 759C488 759 488.367 770.871 492.327 775.711C496.288 780.551 506 781 506 781Z" fill="#FFA6D6"/>
<path d="M470 781H434C434 781 443.712 780.551 447.673 775.711C451.633 770.871 452 759 452 759C452 759 452.367 770.871 456.327 775.711C460.288 780.551 470 781 470 781Z" fill="#FFA6D6"/>
<path d="M434 781H398C398 781 407.712 780.551 411.673 775.711C415.633 770.871 416 759 416 759C416 759 416.367 770.871 420.327 775.711C424.288 780.551 434 781 434 781Z" fill="#FFA6D6"/>
<path d="M398 781H362C362 781 371.712 780.551 375.673 775.711C379.633 770.871 380 759 380 759C380 759 380.367 770.871 384.327 775.711C388.288 780.551 398 781 398 781Z" fill="#FFA6D6"/>
<path d="M362 781H326C326 781 335.712 780.551 339.673 775.711C343.633 770.871 344 759 344 759C344 759 344.367 770.871 348.327 775.711C352.288 780.551 362 781 362 781Z" fill="#FFA6D6"/>
<path d="M326 781H290C290 781 299.712 780.551 303.673 775.711C307.633 770.871 308 759 308 759C308 759 308.367 770.871 312.327 775.711C316.288 780.551 326 781 326 781Z" fill="#FFA6D6"/>
<path d="M290 781H254C254 781 263.712 780.551 267.673 775.711C271.633 770.871 272 759 272 759C272 759 272.367 770.871 276.327 775.711C280.288 780.551 290 781 290 781Z" fill="#FFA6D6"/>
<path d="M254 781H218C218 781 227.712 780.551 231.673 775.711C235.633 770.871 236 759 236 759C236 759 236.367 770.871 240.327 775.711C244.288 780.551 254 781 254 781Z" fill="#FFA6D6"/>
<path d="M218 781H182C182 781 191.712 780.551 195.673 775.711C199.633 770.871 200 759 200 759C200 759 200.367 770.871 204.327 775.711C208.288 780.551 218 781 218 781Z" fill="#FFA6D6"/>
<path d="M182 781H146C146 781 155.712 780.551 159.673 775.711C163.633 770.871 164 759 164 759C164 759 164.367 770.871 168.327 775.711C172.288 780.551 182 781 182 781Z" fill="#FFA6D6"/>
<path d="M146 781H110C110 781 119.712 780.551 123.673 775.711C127.633 770.871 128 759 128 759C128 759 128.367 770.871 132.327 775.711C136.288 780.551 146 781 146 781Z" fill="#FFA6D6"/>
<path d="M110 781H74C74 781 83.7123 780.551 87.6725 775.711C91.6327 770.871 92 759 92 759C92 759 92.3673 770.871 96.3275 775.711C100.288 780.551 110 781 110 781Z" fill="#FFA6D6"/>
<path d="M74 781H38C38 781 47.7123 780.551 51.6725 775.711C55.6327 770.871 56 759 56 759C56 759 56.3673 770.871 60.3275 775.711C64.2877 780.551 74 781 74 781Z" fill="#FFA6D6"/>
<path d="M538.289 146.188C536.385 146.519 534.572 145.245 534.24 143.341C533.908 141.436 535.182 139.623 537.087 139.291C538.991 138.96 540.804 140.234 541.136 142.138C541.468 144.043 540.193 145.856 538.289 146.188Z" fill="#FDE4FA"/>
<path d="M624.548 116.94C622.643 117.272 620.83 115.997 620.499 114.093C620.167 112.189 621.441 110.376 623.346 110.044C625.25 109.712 627.063 110.987 627.395 112.891C627.727 114.795 626.452 116.608 624.548 116.94Z" fill="#FDE4FA"/>
<path d="M160.65 330.497C158.746 330.829 156.933 329.554 156.601 327.65C156.269 325.746 157.544 323.933 159.448 323.601C161.352 323.269 163.165 324.544 163.497 326.448C163.829 328.352 162.554 330.165 160.65 330.497Z" fill="#FDE4FA"/>
<path d="M680.864 63.0538C679.862 63.2285 678.9 62.51 678.715 61.449C678.53 60.3881 679.192 59.3864 680.194 59.2118C681.196 59.0371 682.158 59.7556 682.343 60.8165C682.528 61.8775 681.866 62.8791 680.864 63.0538Z" fill="#FDE4FA"/>
<path d="M271.368 78.7616C269.989 79.0021 268.676 78.0789 268.435 76.6996C268.195 75.3203 269.118 74.0073 270.497 73.7669C271.877 73.5265 273.19 74.4497 273.43 75.8289C273.671 77.2082 272.747 78.5212 271.368 78.7616Z" fill="#FDE4FA"/>
<path d="M1073 150C1073 152.761 1070.76 155 1068 155C1065.24 155 1063 152.761 1063 150C1063 147.239 1065.24 145 1068 145C1070.76 145 1073 147.239 1073 150Z" fill="#FDE4FA"/>
<path d="M580 509C580 511.761 577.761 514 575 514C572.239 514 570 511.761 570 509C570 506.239 572.239 504 575 504C577.761 504 580 506.239 580 509Z" fill="#FDE4FA"/>
<path d="M884 512C884 514.761 881.761 517 879 517C876.239 517 874 514.761 874 512C874 509.239 876.239 507 879 507C881.761 507 884 509.239 884 512Z" fill="#FDE4FA"/>
<path d="M837 71C837 73.7614 834.761 76 832 76C829.239 76 827 73.7614 827 71C827 68.2386 829.239 66 832 66C834.761 66 837 68.2386 837 71Z" fill="#FDE4FA"/>
<path d="M1254 221C1254 223.761 1251.76 226 1249 226C1246.24 226 1244 223.761 1244 221C1244 218.239 1246.24 216 1249 216C1251.76 216 1254 218.239 1254 221Z" fill="#FDE4FA"/>
<path d="M524.993 62.213C524.177 62.3553 523.4 61.809 523.258 60.9929C523.115 60.1768 523.662 59.3999 524.478 59.2576C525.294 59.1153 526.071 59.6616 526.213 60.4777C526.355 61.2938 525.809 62.0708 524.993 62.213Z" fill="#FDE4FA"/>
<path d="M233.993 350.213C233.177 350.355 232.4 349.809 232.258 348.993C232.115 348.177 232.662 347.4 233.478 347.258C234.294 347.115 235.071 347.662 235.213 348.478C235.355 349.294 234.809 350.071 233.993 350.213Z" fill="#FDE4FA"/>
<path d="M139.993 385.213C139.177 385.355 138.4 384.809 138.258 383.993C138.115 383.177 138.662 382.4 139.478 382.258C140.294 382.115 141.071 382.662 141.213 383.478C141.355 384.294 140.809 385.071 139.993 385.213Z" fill="#FDE4FA"/>
<path d="M173.993 340.213C173.177 340.355 172.4 339.809 172.258 338.993C172.115 338.177 172.662 337.4 173.478 337.258C174.294 337.115 175.071 337.662 175.213 338.478C175.355 339.294 174.809 340.071 173.993 340.213Z" fill="#FDE4FA"/>
<path d="M70.9929 312.213C70.1768 312.355 69.3999 311.809 69.2576 310.993C69.1153 310.177 69.6616 309.4 70.4777 309.258C71.2939 309.115 72.0708 309.662 72.2131 310.478C72.3553 311.294 71.809 312.071 70.9929 312.213Z" fill="#FDE4FA"/>
<path d="M360.993 333.213C360.177 333.355 359.4 332.809 359.258 331.993C359.115 331.177 359.662 330.4 360.478 330.258C361.294 330.115 362.071 330.662 362.213 331.478C362.355 332.294 361.809 333.071 360.993 333.213Z" fill="#FDE4FA"/>
<path d="M402.993 404.213C402.177 404.355 401.4 403.809 401.258 402.993C401.115 402.177 401.662 401.4 402.478 401.258C403.294 401.115 404.071 401.662 404.213 402.478C404.355 403.294 403.809 404.071 402.993 404.213Z" fill="#FDE4FA"/>
<path d="M580.637 159.107C580.093 159.202 579.536 158.617 579.394 157.801C579.252 156.985 579.577 156.247 580.121 156.152C580.665 156.057 581.222 156.642 581.364 157.458C581.506 158.274 581.181 159.012 580.637 159.107Z" fill="#FDE4FA"/>
<path d="M676.819 93.6169C676.275 93.7117 675.718 93.127 675.576 92.3109C675.434 91.4948 675.76 90.7563 676.304 90.6615C676.848 90.5666 677.404 91.1513 677.546 91.9675C677.689 92.7836 677.363 93.5221 676.819 93.6169Z" fill="#FDE4FA"/>
<path d="M379.5 69.1272C378.956 69.222 378.4 68.6373 378.258 67.8212C378.115 67.0051 378.441 66.2666 378.985 66.1717C379.529 66.0769 380.086 66.6616 380.228 67.4777C380.37 68.2938 380.044 69.0323 379.5 69.1272Z" fill="#FDE4FA"/>
<path d="M250.5 49.1272C249.956 49.222 249.4 48.6373 249.258 47.8212C249.115 47.0051 249.441 46.2666 249.985 46.1717C250.529 46.0769 251.086 46.6616 251.228 47.4777C251.37 48.2938 251.044 49.0323 250.5 49.1272Z" fill="#FDE4FA"/>
<path d="M157.5 78.1272C156.956 78.222 156.4 77.6373 156.258 76.8212C156.115 76.0051 156.441 75.2666 156.985 75.1717C157.529 75.0769 158.086 75.6616 158.228 76.4777C158.37 77.2938 158.044 78.0323 157.5 78.1272Z" fill="#FDE4FA"/>
<path d="M998.5 262.127C997.956 262.222 997.4 261.637 997.258 260.821C997.115 260.005 997.441 259.267 997.985 259.172C998.529 259.077 999.086 259.662 999.228 260.478C999.37 261.294 999.044 262.032 998.5 262.127Z" fill="#FDE4FA"/>
<path d="M1119.5 318.127C1118.96 318.222 1118.4 317.637 1118.26 316.821C1118.12 316.005 1118.44 315.267 1118.99 315.172C1119.53 315.077 1120.09 315.662 1120.23 316.478C1120.37 317.294 1120.04 318.032 1119.5 318.127Z" fill="#FDE4FA"/>
<path d="M957.5 524.127C956.956 524.222 956.4 523.637 956.258 522.821C956.115 522.005 956.441 521.267 956.985 521.172C957.529 521.077 958.086 521.662 958.228 522.478C958.37 523.294 958.044 524.032 957.5 524.127Z" fill="#FDE4FA"/>
<path d="M1086.5 472.127C1085.96 472.222 1085.4 471.637 1085.26 470.821C1085.12 470.005 1085.44 469.267 1085.99 469.172C1086.53 469.077 1087.09 469.662 1087.23 470.478C1087.37 471.294 1087.04 472.032 1086.5 472.127Z" fill="#FDE4FA"/>
<path d="M1334.5 295.127C1333.96 295.222 1333.4 294.637 1333.26 293.821C1333.12 293.005 1333.44 292.267 1333.99 292.172C1334.53 292.077 1335.09 292.662 1335.23 293.478C1335.37 294.294 1335.04 295.032 1334.5 295.127Z" fill="#FDE4FA"/>
<path d="M1265.5 537.127C1264.96 537.222 1264.4 536.637 1264.26 535.821C1264.12 535.005 1264.44 534.267 1264.99 534.172C1265.53 534.077 1266.09 534.662 1266.23 535.478C1266.37 536.294 1266.04 537.032 1265.5 537.127Z" fill="#FDE4FA"/>
<path d="M254.5 672.127C253.956 672.222 253.4 671.637 253.258 670.821C253.115 670.005 253.441 669.267 253.985 669.172C254.529 669.077 255.086 669.662 255.228 670.478C255.37 671.294 255.044 672.032 254.5 672.127Z" fill="#FDE4FA"/>
<path d="M291.5 582.127C290.956 582.222 290.4 581.637 290.258 580.821C290.115 580.005 290.441 579.267 290.985 579.172C291.529 579.077 292.086 579.662 292.228 580.478C292.37 581.294 292.044 582.032 291.5 582.127Z" fill="#FDE4FA"/>
<path d="M66.5003 574.127C65.9562 574.222 65.3999 573.637 65.2576 572.821C65.1153 572.005 65.4411 571.267 65.9851 571.172C66.5292 571.077 67.0856 571.662 67.2279 572.478C67.3701 573.294 67.0444 574.032 66.5003 574.127Z" fill="#FDE4FA"/>
<path d="M487.5 692.127C486.956 692.222 486.4 691.637 486.258 690.821C486.115 690.005 486.441 689.267 486.985 689.172C487.529 689.077 488.086 689.662 488.228 690.478C488.37 691.294 488.044 692.032 487.5 692.127Z" fill="#FDE4FA"/>
<path d="M738.758 309.183C738.214 309.277 737.657 308.693 737.515 307.877C737.373 307.06 737.699 306.322 738.243 306.227C738.787 306.132 739.343 306.717 739.485 307.533C739.628 308.349 739.302 309.088 738.758 309.183Z" fill="#FDE4FA"/>
<path d="M974 343C974 344.105 973.105 345 972 345C970.895 345 970 344.105 970 343C970 341.895 970.895 341 972 341C973.105 341 974 341.895 974 343Z" fill="#FDE4FA"/>
<path d="M720 78C720 79.1046 719.105 80 718 80C716.895 80 716 79.1046 716 78C716 76.8954 716.895 76 718 76C719.105 76 720 76.8954 720 78Z" fill="#FDE4FA"/>
<path d="M1176 482C1176 483.105 1175.1 484 1174 484C1172.9 484 1172 483.105 1172 482C1172 480.895 1172.9 480 1174 480C1175.1 480 1176 480.895 1176 482Z" fill="#FDE4FA"/>
<path d="M1053 728C1053 729.105 1052.1 730 1051 730C1049.9 730 1049 729.105 1049 728C1049 726.895 1049.9 726 1051 726C1052.1 726 1053 726.895 1053 728Z" fill="#FDE4FA"/>
<path d="M929 82C929 83.1046 928.105 84 927 84C925.895 84 925 83.1046 925 82C925 80.8954 925.895 80 927 80C928.105 80 929 80.8954 929 82Z" fill="#FDE4FA"/>
<path d="M1205 330C1205 331.105 1204.1 332 1203 332C1201.9 332 1201 331.105 1201 330C1201 328.895 1201.9 328 1203 328C1204.1 328 1205 328.895 1205 330Z" fill="#FDE4FA"/>
<path d="M994 453C994 454.105 993.105 455 992 455C990.895 455 990 454.105 990 453C990 451.895 990.895 451 992 451C993.105 451 994 451.895 994 453Z" fill="#FDE4FA"/>
<path d="M412 26C412 27.1046 411.105 28 410 28C408.895 28 408 27.1046 408 26C408 24.8954 408.895 24 410 24C411.105 24 412 24.8954 412 26Z" fill="#FDE4FA"/>
<path d="M1085 266C1085 267.105 1084.1 268 1083 268C1081.9 268 1081 267.105 1081 266C1081 264.895 1081.9 264 1083 264C1084.1 264 1085 264.895 1085 266Z" fill="#FDE4FA"/>
<path d="M1028 336C1028 337.105 1027.1 338 1026 338C1024.9 338 1024 337.105 1024 336C1024 334.895 1024.9 334 1026 334C1027.1 334 1028 334.895 1028 336Z" fill="#FDE4FA"/>
<path d="M1053 523C1053 524.105 1052.1 525 1051 525C1049.9 525 1049 524.105 1049 523C1049 521.895 1049.9 521 1051 521C1052.1 521 1053 521.895 1053 523Z" fill="#FDE4FA"/>
<path d="M1190 235C1190 236.105 1189.1 237 1188 237C1186.9 237 1186 236.105 1186 235C1186 233.895 1186.9 233 1188 233C1189.1 233 1190 233.895 1190 235Z" fill="#FDE4FA"/>
<path d="M998 207C998 208.105 997.105 209 996 209C994.895 209 994 208.105 994 207C994 205.895 994.895 205 996 205C997.105 205 998 205.895 998 207Z" fill="#FDE4FA"/>
<path d="M1282 161C1282 162.105 1281.1 163 1280 163C1278.9 163 1278 162.105 1278 161C1278 159.895 1278.9 159 1280 159C1281.1 159 1282 159.895 1282 161Z" fill="#FDE4FA"/>
<path d="M798 126C798 127.105 797.105 128 796 128C794.895 128 794 127.105 794 126C794 124.895 794.895 124 796 124C797.105 124 798 124.895 798 126Z" fill="#FDE4FA"/>
<path d="M339 379.5C339 380.881 337.881 382 336.5 382C335.119 382 334 380.881 334 379.5C334 378.119 335.119 377 336.5 377C337.881 377 339 378.119 339 379.5Z" fill="#FDE4FA"/>
<path d="M568 469.5C568 470.881 566.881 472 565.5 472C564.119 472 563 470.881 563 469.5C563 468.119 564.119 467 565.5 467C566.881 467 568 468.119 568 469.5Z" fill="#FDE4FA"/>
<path d="M614 600.5C614 601.881 612.881 603 611.5 603C610.119 603 609 601.881 609 600.5C609 599.119 610.119 598 611.5 598C612.881 598 614 599.119 614 600.5Z" fill="#FDE4FA"/>
<path d="M506 347.5C506 348.881 504.881 350 503.5 350C502.119 350 501 348.881 501 347.5C501 346.119 502.119 345 503.5 345C504.881 345 506 346.119 506 347.5Z" fill="#FDE4FA"/>
<path d="M268 336.5C268 337.881 266.881 339 265.5 339C264.119 339 263 337.881 263 336.5C263 335.119 264.119 334 265.5 334C266.881 334 268 335.119 268 336.5Z" fill="#FDE4FA"/>
<path d="M179 421.5C179 422.881 177.881 424 176.5 424C175.119 424 174 422.881 174 421.5C174 420.119 175.119 419 176.5 419C177.881 419 179 420.119 179 421.5Z" fill="#FDE4FA"/>
<path d="M848 535.5C848 536.881 846.881 538 845.5 538C844.119 538 843 536.881 843 535.5C843 534.119 844.119 533 845.5 533C846.881 533 848 534.119 848 535.5Z" fill="#FDE4FA"/>
<path d="M737 501.5C737 502.881 735.881 504 734.5 504C733.119 504 732 502.881 732 501.5C732 500.119 733.119 499 734.5 499C735.881 499 737 500.119 737 501.5Z" fill="#FDE4FA"/>
<path d="M220 43.5C220 44.8807 218.881 46 217.5 46C216.119 46 215 44.8807 215 43.5C215 42.1193 216.119 41 217.5 41C218.881 41 220 42.1193 220 43.5Z" fill="#FDE4FA"/>
<path d="M763 504.5C763 505.881 761.881 507 760.5 507C759.119 507 758 505.881 758 504.5C758 503.119 759.119 502 760.5 502C761.881 502 763 503.119 763 504.5Z" fill="#FDE4FA"/>
<path d="M580 604.5C580 605.881 578.881 607 577.5 607C576.119 607 575 605.881 575 604.5C575 603.119 576.119 602 577.5 602C578.881 602 580 603.119 580 604.5Z" fill="#FDE4FA"/>
<path d="M480 660.5C480 661.881 478.881 663 477.5 663C476.119 663 475 661.881 475 660.5C475 659.119 476.119 658 477.5 658C478.881 658 480 659.119 480 660.5Z" fill="#FDE4FA"/>
<path d="M372 612.5C372 613.881 370.881 615 369.5 615C368.119 615 367 613.881 367 612.5C367 611.119 368.119 610 369.5 610C370.881 610 372 611.119 372 612.5Z" fill="#FDE4FA"/>
<path d="M113 684C113 686.761 110.761 689 108 689C105.239 689 103 686.761 103 684C103 681.239 105.239 679 108 679C110.761 679 113 681.239 113 684Z" fill="#FDE4FA"/>
<path d="M225 586C225 588.209 223.209 590 221 590C218.791 590 217 588.209 217 586C217 583.791 218.791 582 221 582C223.209 582 225 583.791 225 586Z" fill="#FDE4FA"/>
<path d="M278 509C278 510.105 277.105 511 276 511C274.895 511 274 510.105 274 509C274 507.895 274.895 507 276 507C277.105 507 278 507.895 278 509Z" fill="#FDE4FA"/>
<path d="M423 731C423 732.105 422.105 733 421 733C419.895 733 419 732.105 419 731C419 729.895 419.895 729 421 729C422.105 729 423 729.895 423 731Z" fill="#FDE4FA"/>
<path d="M427 537C427 538.105 426.105 539 425 539C423.895 539 423 538.105 423 537C423 535.895 423.895 535 425 535C426.105 535 427 535.895 427 537Z" fill="#FDE4FA"/>
<path d="M530 548C530 549.105 529.105 550 528 550C526.895 550 526 549.105 526 548C526 546.895 526.895 546 528 546C529.105 546 530 546.895 530 548Z" fill="#FDE4FA"/>
<path d="M618 702C618 703.105 617.105 704 616 704C614.895 704 614 703.105 614 702C614 700.895 614.895 700 616 700C617.105 700 618 700.895 618 702Z" fill="#FDE4FA"/>
<path d="M510 453C510 454.105 509.105 455 508 455C506.895 455 506 454.105 506 453C506 451.895 506.895 451 508 451C509.105 451 510 451.895 510 453Z" fill="#FDE4FA"/>
<path d="M653 493C653 494.105 652.105 495 651 495C649.895 495 649 494.105 649 493C649 491.895 649.895 491 651 491C652.105 491 653 491.895 653 493Z" fill="#FDE4FA"/>
<path d="M438 375C438 376.105 437.105 377 436 377C434.895 377 434 376.105 434 375C434 373.895 434.895 373 436 373C437.105 373 438 373.895 438 375Z" fill="#FDE4FA"/>
<path d="M66 342C66 343.105 65.1046 344 64 344C62.8954 344 62 343.105 62 342C62 340.895 62.8954 340 64 340C65.1046 340 66 340.895 66 342Z" fill="#FDE4FA"/>
<path d="M154 735C154 736.105 153.105 737 152 737C150.895 737 150 736.105 150 735C150 733.895 150.895 733 152 733C153.105 733 154 733.895 154 735Z" fill="#FDE4FA"/>
<path d="M108 480C108 481.105 107.105 482 106 482C104.895 482 104 481.105 104 480C104 478.895 104.895 478 106 478C107.105 478 108 478.895 108 480Z" fill="#FDE4FA"/>
</svg>
