<svg width="428" height="386" viewBox="0 0 428 386" fill="none" xmlns="http://www.w3.org/2000/svg">
<path d="M207.415 106.495C207.415 106.075 207.745 105.73 208.18 105.73H209.5C209.845 105.73 210.115 105.46 210.115 105.115C210.115 104.77 209.845 104.5 209.5 104.5H204.1C203.755 104.5 203.485 104.77 203.485 105.115C203.485 105.46 203.755 105.73 204.1 105.73H205.42C205.855 105.73 206.185 106.075 206.185 106.495V114.385C206.185 114.73 206.455 115 206.8 115C207.145 115 207.415 114.73 207.415 114.385V106.495Z" fill="white"/>
<path d="M208.81 133C209.155 133 209.425 132.73 209.425 132.385C209.425 132.04 209.155 131.77 208.81 131.77H208.18C207.745 131.77 207.415 131.425 207.415 131.005V124.495C207.415 124.075 207.745 123.73 208.18 123.73H208.81C209.155 123.73 209.425 123.46 209.425 123.115C209.425 122.77 209.155 122.5 208.81 122.5H204.79C204.445 122.5 204.175 122.77 204.175 123.115C204.175 123.46 204.445 123.73 204.79 123.73H205.42C205.855 123.73 206.185 124.075 206.185 124.495V131.005C206.185 131.425 205.855 131.77 205.42 131.77H204.79C204.445 131.77 204.175 132.04 204.175 132.385C204.175 132.73 204.445 133 204.79 133H208.81Z" fill="white"/>
<path d="M204.715 141.115C204.715 140.77 204.445 140.5 204.1 140.5C203.755 140.5 203.485 140.77 203.485 141.115V150.385C203.485 150.73 203.755 151 204.1 151H209.485C209.83 151 210.1 150.73 210.1 150.385C210.1 150.04 209.83 149.77 209.485 149.77H205.465C205.045 149.77 204.715 149.425 204.715 149.005V141.115Z" fill="white"/>
<path d="M208.345 158.665C208.21 158.56 208.075 158.5 207.91 158.5H204.1C203.755 158.5 203.485 158.77 203.485 159.115V168.385C203.485 168.73 203.755 169 204.1 169H207.91C208.075 169 208.21 168.94 208.345 168.835L209.935 167.215C210.055 167.11 210.115 166.96 210.115 166.795V160.705C210.115 160.525 210.055 160.39 209.935 160.285L208.345 158.665ZM207.82 167.59C207.7 167.71 207.55 167.77 207.385 167.77H205.465C205.045 167.77 204.715 167.425 204.715 167.005V160.495C204.715 160.075 205.045 159.73 205.465 159.73H207.385C207.55 159.73 207.7 159.79 207.82 159.91L208.69 160.795C208.795 160.9 208.885 161.065 208.885 161.23V166.27C208.885 166.435 208.795 166.6 208.69 166.705L207.82 167.59Z" fill="white"/>
<path d="M210.115 178.705C210.115 178.525 210.055 178.39 209.935 178.285L208.345 176.665C208.21 176.56 208.075 176.5 207.91 176.5H205.69C205.51 176.5 205.36 176.56 205.255 176.68L203.665 178.27C203.545 178.405 203.485 178.555 203.485 178.705V186.385C203.485 186.73 203.755 187 204.1 187C204.445 187 204.715 186.73 204.715 186.385V183.475C204.715 183.04 205.045 182.71 205.465 182.71H208.12C208.54 182.71 208.885 183.04 208.885 183.475V186.385C208.885 186.73 209.155 187 209.5 187C209.845 187 210.115 186.73 210.115 186.385V178.705ZM208.885 180.715C208.885 181.135 208.54 181.48 208.12 181.48H205.465C205.045 181.48 204.715 181.135 204.715 180.715V179.23C204.715 179.035 204.775 178.9 204.895 178.795L205.78 177.91C205.885 177.79 206.02 177.73 206.2 177.73H207.385C207.55 177.73 207.7 177.79 207.82 177.91L208.69 178.795C208.795 178.9 208.885 179.065 208.885 179.23V180.715Z" fill="white"/>
<path d="M207 59C207 59 207.265 67.6332 210.125 71.1533C212.986 74.6735 220 75 220 75C220 75 212.986 75.3265 210.125 78.8467C207.265 82.3668 207 91 207 91C207 91 206.735 82.3668 203.875 78.8467C201.014 75.3265 194 75 194 75C194 75 201.014 74.6735 203.875 71.1533C206.735 67.6332 207 59 207 59Z" fill="white"/>
<path d="M18.5 0C18.5 0 18.8775 11.8706 22.9477 16.7108C27.0179 21.551 37 22 37 22C37 22 27.0179 22.449 22.9477 27.2892C18.8775 32.1294 18.5 44 18.5 44C18.5 44 18.1225 32.1294 14.0523 27.2892C9.98213 22.449 0 22 0 22C0 22 9.98213 21.551 14.0523 16.7108C18.1225 11.8706 18.5 0 18.5 0Z" fill="white"/>
<path d="M109 138C109 138 109.367 149.871 113.327 154.711C117.288 159.551 127 160 127 160C127 160 117.288 160.449 113.327 165.289C109.367 170.129 109 182 109 182C109 182 108.633 170.129 104.673 165.289C100.712 160.449 91 160 91 160C91 160 100.712 159.551 104.673 154.711C108.633 149.871 109 138 109 138Z" fill="white"/>
<path d="M14.715 64.13C14.715 63.71 15.045 63.365 15.465 63.365H18.45C18.795 63.365 19.065 63.095 19.065 62.75C19.065 62.405 18.795 62.135 18.45 62.135H15.465C15.045 62.135 14.715 61.79 14.715 61.37V59.495C14.715 59.075 15.045 58.73 15.465 58.73H19.485C19.83 58.73 20.1 58.46 20.1 58.115C20.1 57.77 19.83 57.5 19.485 57.5H14.1C13.755 57.5 13.485 57.77 13.485 58.115V67.385C13.485 67.73 13.755 68 14.1 68C14.445 68 14.715 67.73 14.715 67.385V64.13Z" fill="white"/>
<path d="M18.81 86C19.155 86 19.425 85.73 19.425 85.385C19.425 85.04 19.155 84.77 18.81 84.77H18.18C17.745 84.77 17.415 84.425 17.415 84.005V77.495C17.415 77.075 17.745 76.73 18.18 76.73H18.81C19.155 76.73 19.425 76.46 19.425 76.115C19.425 75.77 19.155 75.5 18.81 75.5H14.79C14.445 75.5 14.175 75.77 14.175 76.115C14.175 76.46 14.445 76.73 14.79 76.73H15.42C15.855 76.73 16.185 77.075 16.185 77.495V84.005C16.185 84.425 15.855 84.77 15.42 84.77H14.79C14.445 84.77 14.175 85.04 14.175 85.385C14.175 85.73 14.445 86 14.79 86H18.81Z" fill="white"/>
<path d="M18.885 96.08C18.885 96.425 19.155 96.695 19.5 96.695C19.845 96.695 20.115 96.425 20.115 96.08V95.39C20.115 95.225 20.055 95.075 19.95 94.94L18.645 93.68C18.54 93.56 18.405 93.5 18.21 93.5H15.36C15.195 93.5 15.045 93.56 14.94 93.68L13.665 94.94C13.545 95.09 13.485 95.24 13.485 95.39V102.095C13.485 102.26 13.545 102.41 13.665 102.56L14.94 103.82C15.045 103.94 15.195 104 15.36 104H18.21C18.405 104 18.54 103.94 18.645 103.82L19.95 102.56C20.055 102.425 20.115 102.26 20.115 102.095V98.75C20.115 98.405 19.845 98.135 19.5 98.135H17.205C16.86 98.135 16.575 98.405 16.575 98.75C16.575 99.095 16.86 99.365 17.205 99.365H18.12C18.54 99.365 18.885 99.695 18.885 100.115V101.6C18.885 101.765 18.795 101.915 18.69 102.02L18.135 102.59C18.03 102.71 17.895 102.77 17.7 102.77H15.9C15.735 102.77 15.555 102.695 15.45 102.59L14.895 102.02C14.775 101.915 14.715 101.78 14.715 101.6V95.9C14.715 95.72 14.775 95.585 14.895 95.48L15.45 94.91C15.555 94.805 15.735 94.73 15.9 94.73H17.7C17.895 94.73 18.03 94.79 18.135 94.91L18.69 95.48C18.795 95.585 18.885 95.735 18.885 95.9V96.08Z" fill="white"/>
<path d="M18.885 121.385C18.885 121.73 19.155 122 19.5 122C19.845 122 20.115 121.73 20.115 121.385V112.115C20.115 111.77 19.845 111.5 19.5 111.5C19.335 111.5 19.185 111.56 19.05 111.665L17.34 113.39C17.205 113.54 17.04 113.615 16.815 113.615C16.59 113.615 16.425 113.525 16.26 113.405L14.535 111.665C14.4 111.56 14.265 111.5 14.1 111.5C13.755 111.5 13.485 111.77 13.485 112.115V121.385C13.485 121.73 13.755 122 14.1 122C14.445 122 14.715 121.73 14.715 121.385V114.005C14.715 113.87 14.76 113.81 14.85 113.81C14.91 113.81 14.955 113.84 14.985 113.885L16.005 114.89C16.11 114.995 16.185 115.16 16.185 115.325V116.75C16.185 117.095 16.455 117.365 16.815 117.365C17.16 117.365 17.415 117.095 17.415 116.75V115.325C17.415 115.16 17.49 114.995 17.595 114.89L18.6 113.885C18.63 113.84 18.675 113.81 18.735 113.81C18.84 113.81 18.885 113.87 18.885 114.005V121.385Z" fill="white"/>
<path d="M20.115 131.705C20.115 131.525 20.055 131.39 19.935 131.285L18.345 129.665C18.21 129.56 18.075 129.5 17.91 129.5H15.69C15.51 129.5 15.36 129.56 15.255 129.68L13.665 131.27C13.545 131.405 13.485 131.555 13.485 131.705V139.385C13.485 139.73 13.755 140 14.1 140C14.445 140 14.715 139.73 14.715 139.385V136.475C14.715 136.04 15.045 135.71 15.465 135.71H18.12C18.54 135.71 18.885 136.04 18.885 136.475V139.385C18.885 139.73 19.155 140 19.5 140C19.845 140 20.115 139.73 20.115 139.385V131.705ZM18.885 133.715C18.885 134.135 18.54 134.48 18.12 134.48H15.465C15.045 134.48 14.715 134.135 14.715 133.715V132.23C14.715 132.035 14.775 131.9 14.895 131.795L15.78 130.91C15.885 130.79 16.02 130.73 16.2 130.73H17.385C17.55 130.73 17.7 130.79 17.82 130.91L18.69 131.795C18.795 131.9 18.885 132.065 18.885 132.23V133.715Z" fill="white"/>
<path d="M296.5 142C296.5 142 296.735 149.824 299.265 153.014C301.795 156.204 308 156.5 308 156.5C308 156.5 301.795 156.796 299.265 159.986C296.735 163.176 296.5 171 296.5 171C296.5 171 296.265 163.176 293.735 159.986C291.205 156.796 285 156.5 285 156.5C285 156.5 291.205 156.204 293.735 153.014C296.265 149.824 296.5 142 296.5 142Z" fill="white"/>
<path d="M416.5 68C416.5 68 416.735 75.8238 419.265 79.014C421.795 82.2041 428 82.5 428 82.5C428 82.5 421.795 82.7959 419.265 85.986C416.735 89.1762 416.5 97 416.5 97C416.5 97 416.265 89.1762 413.735 85.986C411.205 82.7959 405 82.5 405 82.5C405 82.5 411.205 82.2041 413.735 79.014C416.265 75.8238 416.5 68 416.5 68Z" fill="white"/>
<path d="M295.264 196C295.632 196 295.92 195.712 295.92 195.344C295.92 194.976 295.632 194.688 295.264 194.688H294.592C294.128 194.688 293.776 194.32 293.776 193.872V186.928C293.776 186.48 294.128 186.112 294.592 186.112H295.264C295.632 186.112 295.92 185.824 295.92 185.456C295.92 185.088 295.632 184.8 295.264 184.8H290.976C290.608 184.8 290.32 185.088 290.32 185.456C290.32 185.824 290.608 186.112 290.976 186.112H291.648C292.112 186.112 292.464 186.48 292.464 186.928V193.872C292.464 194.32 292.112 194.688 291.648 194.688H290.976C290.608 194.688 290.32 194.976 290.32 195.344C290.32 195.712 290.608 196 290.976 196H295.264Z" fill="white"/>
<path d="M290.896 204.456C290.896 204.088 290.608 203.8 290.24 203.8C289.872 203.8 289.584 204.088 289.584 204.456V214.344C289.584 214.712 289.872 215 290.24 215H295.984C296.352 215 296.64 214.712 296.64 214.344C296.64 213.976 296.352 213.688 295.984 213.688H291.696C291.248 213.688 290.896 213.32 290.896 212.872V204.456Z" fill="white"/>
<path d="M290.896 223.456C290.896 223.088 290.608 222.8 290.24 222.8C289.872 222.8 289.584 223.088 289.584 223.456V233.344C289.584 233.712 289.872 234 290.24 234H295.984C296.352 234 296.64 233.712 296.64 233.344C296.64 232.976 296.352 232.688 295.984 232.688H291.696C291.248 232.688 290.896 232.32 290.896 231.872V223.456Z" fill="white"/>
<path d="M290.896 242.456C290.896 242.088 290.608 241.8 290.24 241.8C289.872 241.8 289.584 242.088 289.584 242.456V250.984C289.584 251.144 289.648 251.304 289.776 251.464L291.136 252.808C291.248 252.936 291.408 253 291.584 253H294.624C294.832 253 294.976 252.936 295.088 252.808L296.48 251.464C296.592 251.32 296.656 251.16 296.656 250.984V242.456C296.656 242.088 296.368 241.8 296 241.8C295.632 241.8 295.344 242.088 295.344 242.456V250.44C295.344 250.616 295.248 250.776 295.136 250.888L294.544 251.496C294.432 251.624 294.288 251.688 294.08 251.688H292.144C291.968 251.688 291.792 251.608 291.68 251.496L291.088 250.888C290.96 250.776 290.896 250.632 290.896 250.44V242.456Z" fill="white"/>
<path d="M295.344 263.552C295.344 263.92 295.632 264.208 296 264.208C296.368 264.208 296.656 263.92 296.656 263.552V262.816C296.656 262.64 296.592 262.48 296.48 262.336L295.088 260.992C294.976 260.864 294.832 260.8 294.64 260.8H291.584C291.408 260.8 291.248 260.864 291.136 260.992L289.776 262.336C289.648 262.496 289.584 262.656 289.584 262.816V265.04C289.584 265.216 289.648 265.376 289.776 265.504L291.12 266.864C291.264 266.992 291.424 267.056 291.584 267.056H294.08C294.272 267.056 294.432 267.12 294.56 267.248L295.136 267.856C295.248 267.968 295.344 268.144 295.344 268.32V269.44C295.344 269.616 295.248 269.776 295.136 269.888L294.544 270.496C294.432 270.624 294.288 270.688 294.08 270.688H292.144C291.968 270.688 291.792 270.608 291.68 270.496L291.088 269.888C290.96 269.776 290.896 269.632 290.896 269.44V269.232C290.896 268.864 290.608 268.592 290.24 268.592C289.872 268.592 289.584 268.864 289.584 269.232V269.984C289.584 270.144 289.648 270.304 289.776 270.464L291.136 271.808C291.248 271.936 291.408 272 291.584 272H294.64C294.832 272 294.976 271.936 295.088 271.808L296.48 270.464C296.592 270.32 296.656 270.16 296.656 269.984V267.76C296.656 267.568 296.592 267.408 296.48 267.296L295.104 265.936C294.96 265.808 294.8 265.744 294.64 265.744H292.144C291.968 265.744 291.776 265.664 291.664 265.552L291.088 264.944C290.976 264.832 290.896 264.656 290.896 264.48V263.36C290.896 263.168 290.96 263.024 291.088 262.912L291.68 262.304C291.792 262.192 291.968 262.112 292.144 262.112H294.08C294.288 262.112 294.432 262.176 294.544 262.304L295.136 262.912C295.248 263.024 295.344 263.184 295.344 263.36V263.552Z" fill="white"/>
<path d="M293.776 281.928C293.776 281.48 294.128 281.112 294.592 281.112H296C296.368 281.112 296.656 280.824 296.656 280.456C296.656 280.088 296.368 279.8 296 279.8H290.24C289.872 279.8 289.584 280.088 289.584 280.456C289.584 280.824 289.872 281.112 290.24 281.112H291.648C292.112 281.112 292.464 281.48 292.464 281.928V290.344C292.464 290.712 292.752 291 293.12 291C293.488 291 293.776 290.712 293.776 290.344V281.928Z" fill="white"/>
<path d="M293.744 305.424C293.92 305.424 294.08 305.488 294.208 305.616L295.136 306.56C295.248 306.672 295.344 306.832 295.344 307.008V309.344C295.344 309.712 295.632 310 296 310C296.368 310 296.656 309.712 296.656 309.344V306.464C296.656 306.288 296.592 306.128 296.48 305.984L295.792 305.344C295.664 305.168 295.568 304.96 295.568 304.752C295.568 304.544 295.648 304.352 295.808 304.192L296.464 303.536C296.592 303.392 296.656 303.232 296.656 303.072V301.152C296.656 300.96 296.592 300.8 296.48 300.688L294.784 298.992C294.64 298.864 294.48 298.8 294.304 298.8H290.24C289.872 298.8 289.584 299.088 289.584 299.456V309.344C289.584 309.712 289.872 310 290.24 310C290.608 310 290.896 309.712 290.896 309.344V306.24C290.896 305.776 291.248 305.424 291.696 305.424H293.744ZM294.208 303.92C294.08 304.048 293.92 304.112 293.744 304.112H291.696C291.248 304.112 290.896 303.744 290.896 303.296V300.928C290.896 300.48 291.248 300.112 291.696 300.112H293.744C293.92 300.112 294.08 300.176 294.208 300.304L295.136 301.248C295.248 301.36 295.344 301.536 295.344 301.712V302.512C295.344 302.688 295.248 302.864 295.136 302.976L294.208 303.92Z" fill="white"/>
<path d="M296.656 320.152C296.656 319.96 296.592 319.816 296.464 319.704L294.768 317.976C294.624 317.864 294.48 317.8 294.304 317.8H291.936C291.744 317.8 291.584 317.864 291.472 317.992L289.776 319.688C289.648 319.832 289.584 319.992 289.584 320.152V328.344C289.584 328.712 289.872 329 290.24 329C290.608 329 290.896 328.712 290.896 328.344V325.24C290.896 324.776 291.248 324.424 291.696 324.424H294.528C294.976 324.424 295.344 324.776 295.344 325.24V328.344C295.344 328.712 295.632 329 296 329C296.368 329 296.656 328.712 296.656 328.344V320.152ZM295.344 322.296C295.344 322.744 294.976 323.112 294.528 323.112H291.696C291.248 323.112 290.896 322.744 290.896 322.296V320.712C290.896 320.504 290.96 320.36 291.088 320.248L292.032 319.304C292.144 319.176 292.288 319.112 292.48 319.112H293.744C293.92 319.112 294.08 319.176 294.208 319.304L295.136 320.248C295.248 320.36 295.344 320.536 295.344 320.712V322.296Z" fill="white"/>
<path d="M293.776 338.928C293.776 338.48 294.128 338.112 294.592 338.112H296C296.368 338.112 296.656 337.824 296.656 337.456C296.656 337.088 296.368 336.8 296 336.8H290.24C289.872 336.8 289.584 337.088 289.584 337.456C289.584 337.824 289.872 338.112 290.24 338.112H291.648C292.112 338.112 292.464 338.48 292.464 338.928V347.344C292.464 347.712 292.752 348 293.12 348C293.488 348 293.776 347.712 293.776 347.344V338.928Z" fill="white"/>
<path d="M295.088 355.992C294.976 355.864 294.832 355.8 294.624 355.8H291.584C291.408 355.8 291.248 355.864 291.136 355.992L289.776 357.336C289.648 357.496 289.584 357.656 289.584 357.816V364.984C289.584 365.144 289.648 365.304 289.776 365.464L291.136 366.808C291.248 366.936 291.408 367 291.584 367H294.624C294.832 367 294.976 366.936 295.088 366.808L296.48 365.464C296.592 365.32 296.656 365.16 296.656 364.984V357.816C296.656 357.64 296.592 357.48 296.48 357.336L295.088 355.992ZM294.544 365.496C294.432 365.624 294.288 365.688 294.08 365.688H292.144C291.968 365.688 291.792 365.608 291.68 365.496L291.088 364.888C290.96 364.776 290.896 364.632 290.896 364.44V358.36C290.896 358.168 290.96 358.024 291.088 357.912L291.68 357.304C291.792 357.192 291.968 357.112 292.144 357.112H294.08C294.288 357.112 294.432 357.176 294.544 357.304L295.136 357.912C295.248 358.024 295.344 358.184 295.344 358.36V364.44C295.344 364.616 295.248 364.776 295.136 364.888L294.544 365.496Z" fill="white"/>
<path d="M293.744 381.424C293.92 381.424 294.08 381.488 294.208 381.616L295.136 382.56C295.248 382.672 295.344 382.832 295.344 383.008V385.344C295.344 385.712 295.632 386 296 386C296.368 386 296.656 385.712 296.656 385.344V382.464C296.656 382.288 296.592 382.128 296.48 381.984L295.792 381.344C295.664 381.168 295.568 380.96 295.568 380.752C295.568 380.544 295.648 380.352 295.808 380.192L296.464 379.536C296.592 379.392 296.656 379.232 296.656 379.072V377.152C296.656 376.96 296.592 376.8 296.48 376.688L294.784 374.992C294.64 374.864 294.48 374.8 294.304 374.8H290.24C289.872 374.8 289.584 375.088 289.584 375.456V385.344C289.584 385.712 289.872 386 290.24 386C290.608 386 290.896 385.712 290.896 385.344V382.24C290.896 381.776 291.248 381.424 291.696 381.424H293.744ZM294.208 379.92C294.08 380.048 293.92 380.112 293.744 380.112H291.696C291.248 380.112 290.896 379.744 290.896 379.296V376.928C290.896 376.48 291.248 376.112 291.696 376.112H293.744C293.92 376.112 294.08 376.176 294.208 376.304L295.136 377.248C295.248 377.36 295.344 377.536 295.344 377.712V378.512C295.344 378.688 295.248 378.864 295.136 378.976L294.208 379.92Z" fill="white"/>
<path d="M413.715 117.475C413.715 117.04 414.045 116.71 414.465 116.71H417.21C417.405 116.71 417.54 116.65 417.645 116.53L418.95 115.27C419.055 115.135 419.115 114.97 419.115 114.805V112.39C419.115 112.225 419.055 112.075 418.95 111.94L417.645 110.68C417.54 110.56 417.405 110.5 417.21 110.5H413.1C412.755 110.5 412.485 110.77 412.485 111.115V120.385C412.485 120.73 412.755 121 413.1 121C413.445 121 413.715 120.73 413.715 120.385V117.475ZM414.465 115.48C414.045 115.48 413.715 115.135 413.715 114.715V112.495C413.715 112.075 414.045 111.73 414.465 111.73H416.7C416.895 111.73 417.03 111.79 417.135 111.91L417.69 112.48C417.795 112.585 417.885 112.735 417.885 112.9V114.31C417.885 114.475 417.795 114.625 417.69 114.73L417.135 115.3C417.03 115.42 416.895 115.48 416.7 115.48H414.465Z" fill="white"/>
<path d="M419.115 129.115C419.115 128.77 418.845 128.5 418.5 128.5C418.155 128.5 417.885 128.77 417.885 129.115V132.37C417.885 132.79 417.54 133.135 417.12 133.135H414.465C414.045 133.135 413.715 132.79 413.715 132.37V129.115C413.715 128.77 413.445 128.5 413.1 128.5C412.755 128.5 412.485 128.77 412.485 129.115V138.385C412.485 138.73 412.755 139 413.1 139C413.445 139 413.715 138.73 413.715 138.385V135.13C413.715 134.71 414.045 134.365 414.465 134.365H417.12C417.54 134.365 417.885 134.71 417.885 135.13V138.385C417.885 138.73 418.155 139 418.5 139C418.845 139 419.115 138.73 419.115 138.385V129.115Z" fill="white"/>
<path d="M417.645 146.68C417.54 146.56 417.405 146.5 417.21 146.5H414.36C414.195 146.5 414.045 146.56 413.94 146.68L412.665 147.94C412.545 148.09 412.485 148.24 412.485 148.39V155.11C412.485 155.26 412.545 155.41 412.665 155.56L413.94 156.82C414.045 156.94 414.195 157 414.36 157H417.21C417.405 157 417.54 156.94 417.645 156.82L418.95 155.56C419.055 155.425 419.115 155.275 419.115 155.11V148.39C419.115 148.225 419.055 148.075 418.95 147.94L417.645 146.68ZM417.135 155.59C417.03 155.71 416.895 155.77 416.7 155.77H414.885C414.72 155.77 414.555 155.695 414.45 155.59L413.895 155.02C413.775 154.915 413.715 154.78 413.715 154.6V148.9C413.715 148.72 413.775 148.585 413.895 148.48L414.45 147.91C414.555 147.805 414.72 147.73 414.885 147.73H416.7C416.895 147.73 417.03 147.79 417.135 147.91L417.69 148.48C417.795 148.585 417.885 148.735 417.885 148.9V154.6C417.885 154.765 417.795 154.915 417.69 155.02L417.135 155.59Z" fill="white"/>
<path d="M416.415 166.495C416.415 166.075 416.745 165.73 417.18 165.73H418.5C418.845 165.73 419.115 165.46 419.115 165.115C419.115 164.77 418.845 164.5 418.5 164.5H413.1C412.755 164.5 412.485 164.77 412.485 165.115C412.485 165.46 412.755 165.73 413.1 165.73H414.42C414.855 165.73 415.185 166.075 415.185 166.495V174.385C415.185 174.73 415.455 175 415.8 175C416.145 175 416.415 174.73 416.415 174.385V166.495Z" fill="white"/>
<path d="M417.645 182.68C417.54 182.56 417.405 182.5 417.21 182.5H414.36C414.195 182.5 414.045 182.56 413.94 182.68L412.665 183.94C412.545 184.09 412.485 184.24 412.485 184.39V191.11C412.485 191.26 412.545 191.41 412.665 191.56L413.94 192.82C414.045 192.94 414.195 193 414.36 193H417.21C417.405 193 417.54 192.94 417.645 192.82L418.95 191.56C419.055 191.425 419.115 191.275 419.115 191.11V184.39C419.115 184.225 419.055 184.075 418.95 183.94L417.645 182.68ZM417.135 191.59C417.03 191.71 416.895 191.77 416.7 191.77H414.885C414.72 191.77 414.555 191.695 414.45 191.59L413.895 191.02C413.775 190.915 413.715 190.78 413.715 190.6V184.9C413.715 184.72 413.775 184.585 413.895 184.48L414.45 183.91C414.555 183.805 414.72 183.73 414.885 183.73H416.7C416.895 183.73 417.03 183.79 417.135 183.91L417.69 184.48C417.795 184.585 417.885 184.735 417.885 184.9V190.6C417.885 190.765 417.795 190.915 417.69 191.02L417.135 191.59Z" fill="white"/>
<path d="M417.885 203.08C417.885 203.425 418.155 203.695 418.5 203.695C418.845 203.695 419.115 203.425 419.115 203.08V202.39C419.115 202.225 419.055 202.075 418.95 201.94L417.645 200.68C417.54 200.56 417.405 200.5 417.225 200.5H414.36C414.195 200.5 414.045 200.56 413.94 200.68L412.665 201.94C412.545 202.09 412.485 202.24 412.485 202.39V204.475C412.485 204.64 412.545 204.79 412.665 204.91L413.925 206.185C414.06 206.305 414.21 206.365 414.36 206.365H416.7C416.88 206.365 417.03 206.425 417.15 206.545L417.69 207.115C417.795 207.22 417.885 207.385 417.885 207.55V208.6C417.885 208.765 417.795 208.915 417.69 209.02L417.135 209.59C417.03 209.71 416.895 209.77 416.7 209.77H414.885C414.72 209.77 414.555 209.695 414.45 209.59L413.895 209.02C413.775 208.915 413.715 208.78 413.715 208.6V208.405C413.715 208.06 413.445 207.805 413.1 207.805C412.755 207.805 412.485 208.06 412.485 208.405V209.11C412.485 209.26 412.545 209.41 412.665 209.56L413.94 210.82C414.045 210.94 414.195 211 414.36 211H417.225C417.405 211 417.54 210.94 417.645 210.82L418.95 209.56C419.055 209.425 419.115 209.275 419.115 209.11V207.025C419.115 206.845 419.055 206.695 418.95 206.59L417.66 205.315C417.525 205.195 417.375 205.135 417.225 205.135H414.885C414.72 205.135 414.54 205.06 414.435 204.955L413.895 204.385C413.79 204.28 413.715 204.115 413.715 203.95V202.9C413.715 202.72 413.775 202.585 413.895 202.48L414.45 201.91C414.555 201.805 414.72 201.73 414.885 201.73H416.7C416.895 201.73 417.03 201.79 417.135 201.91L417.69 202.48C417.795 202.585 417.885 202.735 417.885 202.9V203.08Z" fill="white"/>
<path d="M419.115 219.115C419.115 218.77 418.845 218.5 418.5 218.5C418.155 218.5 417.885 218.77 417.885 219.115V222.37C417.885 222.79 417.54 223.135 417.12 223.135H414.465C414.045 223.135 413.715 222.79 413.715 222.37V219.115C413.715 218.77 413.445 218.5 413.1 218.5C412.755 218.5 412.485 218.77 412.485 219.115V228.385C412.485 228.73 412.755 229 413.1 229C413.445 229 413.715 228.73 413.715 228.385V225.13C413.715 224.71 414.045 224.365 414.465 224.365H417.12C417.54 224.365 417.885 224.71 417.885 225.13V228.385C417.885 228.73 418.155 229 418.5 229C418.845 229 419.115 228.73 419.115 228.385V219.115Z" fill="white"/>
<path d="M417.645 236.68C417.54 236.56 417.405 236.5 417.21 236.5H414.36C414.195 236.5 414.045 236.56 413.94 236.68L412.665 237.94C412.545 238.09 412.485 238.24 412.485 238.39V245.11C412.485 245.26 412.545 245.41 412.665 245.56L413.94 246.82C414.045 246.94 414.195 247 414.36 247H417.21C417.405 247 417.54 246.94 417.645 246.82L418.95 245.56C419.055 245.425 419.115 245.275 419.115 245.11V238.39C419.115 238.225 419.055 238.075 418.95 237.94L417.645 236.68ZM417.135 245.59C417.03 245.71 416.895 245.77 416.7 245.77H414.885C414.72 245.77 414.555 245.695 414.45 245.59L413.895 245.02C413.775 244.915 413.715 244.78 413.715 244.6V238.9C413.715 238.72 413.775 238.585 413.895 238.48L414.45 237.91C414.555 237.805 414.72 237.73 414.885 237.73H416.7C416.895 237.73 417.03 237.79 417.135 237.91L417.69 238.48C417.795 238.585 417.885 238.735 417.885 238.9V244.6C417.885 244.765 417.795 244.915 417.69 245.02L417.135 245.59Z" fill="white"/>
<path d="M413.715 261.475C413.715 261.04 414.045 260.71 414.465 260.71H417.21C417.405 260.71 417.54 260.65 417.645 260.53L418.95 259.27C419.055 259.135 419.115 258.97 419.115 258.805V256.39C419.115 256.225 419.055 256.075 418.95 255.94L417.645 254.68C417.54 254.56 417.405 254.5 417.21 254.5H413.1C412.755 254.5 412.485 254.77 412.485 255.115V264.385C412.485 264.73 412.755 265 413.1 265C413.445 265 413.715 264.73 413.715 264.385V261.475ZM414.465 259.48C414.045 259.48 413.715 259.135 413.715 258.715V256.495C413.715 256.075 414.045 255.73 414.465 255.73H416.7C416.895 255.73 417.03 255.79 417.135 255.91L417.69 256.48C417.795 256.585 417.885 256.735 417.885 256.9V258.31C417.885 258.475 417.795 258.625 417.69 258.73L417.135 259.3C417.03 259.42 416.895 259.48 416.7 259.48H414.465Z" fill="white"/>
<path d="M110.656 198.152C110.656 197.96 110.592 197.816 110.464 197.704L108.768 195.976C108.624 195.864 108.48 195.8 108.304 195.8H105.936C105.744 195.8 105.584 195.864 105.472 195.992L103.776 197.688C103.648 197.832 103.584 197.992 103.584 198.152V206.344C103.584 206.712 103.872 207 104.24 207C104.608 207 104.896 206.712 104.896 206.344V203.24C104.896 202.776 105.248 202.424 105.696 202.424H108.528C108.976 202.424 109.344 202.776 109.344 203.24V206.344C109.344 206.712 109.632 207 110 207C110.368 207 110.656 206.712 110.656 206.344V198.152ZM109.344 200.296C109.344 200.744 108.976 201.112 108.528 201.112H105.696C105.248 201.112 104.896 200.744 104.896 200.296V198.712C104.896 198.504 104.96 198.36 105.088 198.248L106.032 197.304C106.144 197.176 106.288 197.112 106.48 197.112H107.744C107.92 197.112 108.08 197.176 108.208 197.304L109.136 198.248C109.248 198.36 109.344 198.536 109.344 198.712V200.296Z" fill="white"/>
<path d="M108.768 214.976C108.624 214.864 108.48 214.8 108.304 214.8H104.24C103.872 214.8 103.584 215.088 103.584 215.456V225.344C103.584 225.712 103.872 226 104.24 226H108.304C108.48 226 108.624 225.936 108.768 225.824L110.464 224.096C110.592 223.984 110.656 223.824 110.656 223.648V217.152C110.656 216.96 110.592 216.816 110.464 216.704L108.768 214.976ZM108.208 224.496C108.08 224.624 107.92 224.688 107.744 224.688H105.696C105.248 224.688 104.896 224.32 104.896 223.872V216.928C104.896 216.48 105.248 216.112 105.696 216.112H107.744C107.92 216.112 108.08 216.176 108.208 216.304L109.136 217.248C109.248 217.36 109.344 217.536 109.344 217.712V223.088C109.344 223.264 109.248 223.44 109.136 223.552L108.208 224.496Z" fill="white"/>
<path d="M109.088 233.992C108.976 233.864 108.832 233.8 108.624 233.8H105.584C105.408 233.8 105.248 233.864 105.136 233.992L103.776 235.336C103.648 235.496 103.584 235.656 103.584 235.816V242.984C103.584 243.144 103.648 243.304 103.776 243.464L105.136 244.808C105.248 244.936 105.408 245 105.584 245H108.624C108.832 245 108.976 244.936 109.088 244.808L110.48 243.464C110.592 243.32 110.656 243.16 110.656 242.984V235.816C110.656 235.64 110.592 235.48 110.48 235.336L109.088 233.992ZM108.544 243.496C108.432 243.624 108.288 243.688 108.08 243.688H106.144C105.968 243.688 105.792 243.608 105.68 243.496L105.088 242.888C104.96 242.776 104.896 242.632 104.896 242.44V236.36C104.896 236.168 104.96 236.024 105.088 235.912L105.68 235.304C105.792 235.192 105.968 235.112 106.144 235.112H108.08C108.288 235.112 108.432 235.176 108.544 235.304L109.136 235.912C109.248 236.024 109.344 236.184 109.344 236.36V242.44C109.344 242.616 109.248 242.776 109.136 242.888L108.544 243.496Z" fill="white"/>
<path d="M110.48 257.504C110.592 257.392 110.656 257.232 110.656 257.04V254.816C110.656 254.64 110.592 254.48 110.48 254.336L109.088 252.992C108.976 252.864 108.832 252.8 108.624 252.8H104.24C103.872 252.8 103.584 253.088 103.584 253.456V263.344C103.584 263.712 103.872 264 104.24 264H108.624C108.832 264 108.976 263.936 109.088 263.808L110.48 262.464C110.592 262.32 110.656 262.144 110.656 261.968V259.76C110.656 259.568 110.592 259.408 110.48 259.296L110.144 258.976C109.984 258.8 109.904 258.608 109.904 258.4C109.904 258.192 109.984 258 110.144 257.824L110.48 257.504ZM108.56 257.552C108.432 257.68 108.272 257.744 108.08 257.744H105.696C105.248 257.744 104.896 257.376 104.896 256.928V254.928C104.896 254.48 105.248 254.112 105.696 254.112H108.08C108.288 254.112 108.432 254.176 108.544 254.304L109.136 254.912C109.248 255.024 109.344 255.184 109.344 255.36V256.48C109.344 256.656 109.264 256.832 109.152 256.944L108.56 257.552ZM108.544 262.496C108.432 262.624 108.288 262.688 108.08 262.688H105.696C105.248 262.688 104.896 262.32 104.896 261.872V259.872C104.896 259.424 105.248 259.056 105.696 259.056H108.08C108.272 259.056 108.432 259.12 108.56 259.248L109.136 259.856C109.248 259.968 109.344 260.144 109.344 260.32V261.44C109.344 261.616 109.248 261.776 109.136 261.888L108.544 262.496Z" fill="white"/>
<path d="M103.584 282.344C103.584 282.712 103.872 283 104.24 283H109.984C110.352 283 110.64 282.712 110.64 282.344C110.64 281.976 110.352 281.688 109.984 281.688H105.696C105.248 281.688 104.896 281.32 104.896 280.872V278.872C104.896 278.424 105.248 278.056 105.696 278.056H108.88C109.248 278.056 109.552 277.768 109.552 277.4C109.552 277.032 109.248 276.744 108.88 276.744H105.696C105.248 276.744 104.896 276.376 104.896 275.928V273.928C104.896 273.48 105.248 273.112 105.696 273.112H109.984C110.352 273.112 110.64 272.824 110.64 272.456C110.64 272.088 110.352 271.8 109.984 271.8H104.24C103.872 271.8 103.584 272.088 103.584 272.456V282.344Z" fill="white"/>
<path d="M109.344 312.28C109.344 312.456 109.264 312.632 109.152 312.744L107.696 314.216C107.52 314.344 107.312 314.44 107.104 314.44C106.896 314.44 106.704 314.344 106.528 314.216L105.088 312.744C104.976 312.632 104.896 312.456 104.896 312.28V310.456C104.896 310.088 104.608 309.8 104.24 309.8C103.872 309.8 103.584 310.088 103.584 310.456V312.84C103.584 313.016 103.648 313.176 103.792 313.288L105.28 314.824C105.456 315 105.536 315.192 105.536 315.4C105.536 315.608 105.456 315.8 105.296 315.96L103.792 317.512C103.648 317.624 103.584 317.784 103.584 317.96V320.344C103.584 320.712 103.872 321 104.24 321C104.608 321 104.896 320.712 104.896 320.344V318.52C104.896 318.344 104.976 318.168 105.088 318.056L106.528 316.616C106.672 316.44 106.864 316.36 107.104 316.36C107.312 316.36 107.552 316.44 107.696 316.616L109.136 318.056C109.248 318.168 109.344 318.344 109.344 318.52V320.344C109.344 320.712 109.632 321 110 321C110.368 321 110.656 320.712 110.656 320.344V317.96C110.656 317.768 110.592 317.624 110.464 317.512L108.944 315.96C108.768 315.816 108.688 315.624 108.688 315.4C108.688 315.192 108.768 315 108.928 314.824L110.464 313.288C110.592 313.176 110.656 313.016 110.656 312.84V310.456C110.656 310.088 110.368 309.8 110 309.8C109.632 309.8 109.344 310.088 109.344 310.456V312.28Z" fill="white"/>
<path d="M108.768 328.976C108.624 328.864 108.48 328.8 108.304 328.8H104.24C103.872 328.8 103.584 329.088 103.584 329.456V339.344C103.584 339.712 103.872 340 104.24 340H108.304C108.48 340 108.624 339.936 108.768 339.824L110.464 338.096C110.592 337.984 110.656 337.824 110.656 337.648V331.152C110.656 330.96 110.592 330.816 110.464 330.704L108.768 328.976ZM108.208 338.496C108.08 338.624 107.92 338.688 107.744 338.688H105.696C105.248 338.688 104.896 338.32 104.896 337.872V330.928C104.896 330.48 105.248 330.112 105.696 330.112H107.744C107.92 330.112 108.08 330.176 108.208 330.304L109.136 331.248C109.248 331.36 109.344 331.536 109.344 331.712V337.088C109.344 337.264 109.248 337.44 109.136 337.552L108.208 338.496Z" fill="white"/>
<path fill-rule="evenodd" clip-rule="evenodd" d="M38.3007 43.2528C39.019 42.8402 39.9358 43.088 40.3485 43.8063L92.8541 135.205C93.2668 135.923 93.019 136.84 92.3007 137.253C91.5823 137.665 90.6655 137.418 90.2528 136.699L37.7472 45.3007C37.3345 44.5823 37.5823 43.6655 38.3007 43.2528Z" fill="white"/>
<path fill-rule="evenodd" clip-rule="evenodd" d="M194.861 92.228C195.337 92.9062 195.173 93.8416 194.495 94.3174L129.951 139.595C129.273 140.07 128.337 139.906 127.861 139.228C127.386 138.55 127.55 137.614 128.228 137.139L192.772 91.8614C193.45 91.3857 194.386 91.5498 194.861 92.228Z" fill="white"/>
<path fill-rule="evenodd" clip-rule="evenodd" d="M284.074 143.18C283.563 143.832 282.62 143.946 281.968 143.434L219.328 94.2861C218.676 93.7748 218.563 92.8319 219.074 92.1801C219.585 91.5284 220.528 91.4145 221.18 91.9259L283.82 141.074C284.472 141.585 284.585 142.528 284.074 143.18Z" fill="white"/>
<path fill-rule="evenodd" clip-rule="evenodd" d="M405.631 98.3607C405.98 99.1122 405.653 100.004 404.902 100.353L310.623 144.09C309.872 144.439 308.98 144.112 308.631 143.361C308.283 142.609 308.609 141.717 309.361 141.369L403.639 97.6313C404.391 97.2826 405.283 97.6092 405.631 98.3607Z" fill="white"/>
</svg>
