<svg width="407" height="1214" viewBox="0 0 407 1214" fill="none" xmlns="http://www.w3.org/2000/svg">
<path d="M1.50003 3.63216e-08L1.5 1209M70.5001 1.31977e-08L70.5 1209M139.5 3.73047e-08L139.5 1209M208.5 3.73047e-08L208.5 1209M277.5 0L277.5 1209M346.5 0L346.5 1209M0 119.5L407 119.5M0 240.5L407 240.5M0 362.5L407 362.5M0 483.5L407 483.5M0 605.5L407 605.5M0 726.5L407 726.5M0 847.5L407 847.5M0 969.5H407M0 1090.5H407M0 1212.5L407 1212.5" stroke="white" stroke-opacity="0.8" stroke-width="3"/>
</svg>
