<svg width="41" height="42" viewBox="0 0 41 42" fill="none" xmlns="http://www.w3.org/2000/svg">
<path d="M17.8691 31.3604C17.3327 31.3572 16.8029 31.2408 16.3146 31.0187C15.7864 30.7859 15.3364 30.406 15.0183 29.9243C14.7002 29.4427 14.5275 28.8796 14.5208 28.3025V13.9183C14.5275 13.3411 14.7002 12.7781 15.0183 12.2965C15.3364 11.8148 15.7864 11.4349 16.3146 11.2021C16.9223 10.915 17.5984 10.8044 18.2659 10.883C18.9334 10.9615 19.5655 11.226 20.09 11.6462L28.8025 18.8383C29.1441 19.1103 29.4201 19.4558 29.6097 19.8492C29.7993 20.2426 29.8978 20.6737 29.8978 21.1104C29.8978 21.5471 29.7993 21.9782 29.6097 22.3716C29.4201 22.7649 29.1441 23.1105 28.8025 23.3825L20.09 30.5746C19.462 31.0839 18.6777 31.3614 17.8691 31.3604Z" fill="white"/>
</svg>
