<svg width="1920" height="1004" viewBox="0 0 1920 1004" fill="none" xmlns="http://www.w3.org/2000/svg">
<path d="M4.63388e-10 113.553L1920 113.553M0 234.124L1920 234.123M0 354.694L1920 354.694M0 475.264L1920 475.264M0 595.835L1920 595.834M0 758.121L1920 758.121M0 878.303L1920 878.303M139.5 0.831055L139.5 996.999M208.5 0.831055L208.5 996.999M277.5 0.831055L277.5 996.999M346.5 0.831055L346.5 996.999M415.5 0.831055L415.5 996.999M484.5 0.831055L484.5 996.999M553.5 0.831055L553.5 996.999M622.5 0.831055L622.5 996.999M691.5 0.831055L691.5 996.999M760.5 0.831055L760.5 996.999M829.5 0.831055L829.5 996.999M898.5 0.831055L898.5 996.999M967.5 0.831055L967.5 996.999M1036.5 0.831055V996.999M1105.5 0.831055V996.999M1174.5 0.831055V996.999M1243.5 0.831055V996.999M1312.5 0.831055V996.999M1381.5 0.831055V996.999M1450.5 0.831055V996.999M1519.5 0.831055V996.999M1588.5 0.831055V996.999M1657.5 0.831055V996.999M1726.5 0.831055V996.999M1795.5 0.831055V996.999M1864.5 7.83208V1004M70.5 0.831055L70.5 996.999" stroke="white" stroke-opacity="0.8" stroke-width="3"/>
</svg>
