<svg width="1920" height="4321" viewBox="0 0 1920 4321" fill="none" xmlns="http://www.w3.org/2000/svg">
<path d="M0 119.392L1920 119.391M0 240.783L1920 240.783M0 362.174L1920 362.174M0 483.565L1920 483.565M0 604.957L1920 604.956M0 726.348L1920 726.348M0 847.739L1920 847.739M0 969.131L1920 969.13M0 1090.52L1920 1090.52M0 1211.91L1920 1211.91M0 1333.3L1920 1333.3M0 1454.7L1920 1454.7M0 1576.09L1920 1576.09M0 1819.37L1920 1819.37M0 1697.98L1920 1697.98M-6 1819.37L1914 1819.37M0 1940.76L1920 1940.76M0 2062.15L1920 2062.15M0 2183.54L1920 2183.54M0 2304.93L1920 2304.93M0 2426.33L1920 2426.33M0 2547.72L1920 2547.72M0 2669.11L1920 2669.11M0 2790.5L1920 2790.5M0 2911.89L1920 2911.89M0 3033.28L1920 3033.28M0 3154.68L1920 3154.67M0 3397.5L1920 3397.5M0 3518.93L1920 3518.93M0 3640.37L1920 3640.37M0 3761.8L1920 3761.8M0 3883.23L1920 3883.23M0 4004.67L1920 4004.67M0 4126.1L1920 4126.1M0 4247.5H1920M64.5001 5.80702e-08L64.5 4321M133.5 3.49458e-08L133.5 4321M202.5 5.9053e-08L202.5 4321M271.5 5.9053e-08L271.5 4321M340.5 2.17488e-08L340.5 4321M409.5 2.17488e-08L409.5 4321M478.5 2.17488e-08L478.5 4321M547.5 2.17488e-08L547.5 4321M616.5 0L616.5 4321M685.5 0L685.5 4321M754.5 0L754.5 4321M823.5 0L823.5 4321M892.5 0L892.5 4321M961.5 0L961.5 4321M1030.5 0L1030.5 4321M1099.5 0L1099.5 4321M1168.5 0L1168.5 4321M1237.5 0L1237.5 4321M1306.5 0L1306.5 4321M1375.5 0L1375.5 4321M1444.5 0L1444.5 4321M1513.5 0L1513.5 4321M1582.5 0L1582.5 4321M1651.5 0L1651.5 4321M1720.5 0L1720.5 4321M1789.5 0L1789.5 4321M1858.5 0L1858.5 4321" stroke="white" stroke-opacity="0.8" stroke-width="3"/>
</svg>
