<svg width="33" height="40" viewBox="0 0 33 40" fill="none" xmlns="http://www.w3.org/2000/svg">
<path d="M19.6955 15.8281C21.5239 18.0443 24.4673 19.29 27.0225 20C24.4673 20.71 21.5239 21.9557 19.6955 24.1719C18.6764 25.4072 17.9269 27.0377 17.3666 28.7229C17.0158 29.7783 16.7311 30.8802 16.5 31.9609C16.2689 30.8802 15.9843 29.7783 15.6334 28.7229C15.0731 27.0377 14.3236 25.4072 13.3045 24.1719C11.4761 21.9557 8.53273 20.71 5.9775 20C8.53273 19.29 11.4761 18.0443 13.3045 15.8281C14.3236 14.5928 15.0731 12.9623 15.6334 11.2771C15.9843 10.2217 16.2689 9.11977 16.5 8.03913C16.7311 9.11977 17.0158 10.2217 17.3666 11.2771C17.9269 12.9623 18.6764 14.5928 19.6955 15.8281Z" stroke="#FDE4FA" stroke-width="2"/>
</svg>
