<svg width="1920" height="1365" viewBox="0 0 1920 1365" fill="none" xmlns="http://www.w3.org/2000/svg">
<path d="M64.5 5.80703e-08L64.5 1365M133.5 3.49464e-08L133.5 1365M202.5 5.90535e-08L202.5 1365M271.5 5.90535e-08L271.5 1365M340.5 2.17487e-08L340.5 1365M409.5 2.17487e-08L409.5 1365M478.5 2.17487e-08L478.5 1365M547.5 2.17487e-08L547.5 1365M616.5 0L616.5 1365M685.5 0L685.5 1365M754.5 0L754.5 1365M823.5 0L823.5 1365M892.5 0L892.5 1365M961.5 0L961.5 1365M1030.5 0L1030.5 1365M1099.5 0V1365M1168.5 0V1365M1237.5 0V1365M1306.5 0V1365M1375.5 0V1365M1444.5 0V1365M1513.5 0V1365M1582.5 0V1365M1651.5 0V1365M1720.5 0V1365M1789.5 0V1365M1858.5 0V1365M0 120.892L1920 120.891M0 242.283L1920 242.283M0 363.675L1920 363.674M0 485.066L1920 485.066M0 606.5L1920 606.5M0 727.934L1920 727.933M0 849.367L1920 849.367M0 970.801L1920 970.8M0 1092.23L1920 1092.23M0 1213.5L1920 1213.5M0 1334.5L1920 1334.5" stroke="white" stroke-opacity="0.8" stroke-width="3"/>
</svg>
