<svg width="350" height="314" viewBox="0 0 350 314" fill="none" xmlns="http://www.w3.org/2000/svg">
<path d="M350 157C350 243.709 279.709 314 193 314C106.291 314 36 243.709 36 157C36 70.2913 106.291 0 193 0C279.709 0 350 70.2913 350 157Z" fill="#0589F9"/>
<path d="M328.991 146.495C328.991 227.403 263.403 292.991 182.495 292.991C101.588 292.991 36 227.403 36 146.495C36 65.5883 101.588 0 182.495 0C263.403 0 328.991 65.5883 328.991 146.495Z" fill="#01CFFF"/>
<path d="M275 120.5C275 183.184 224.408 234 162 234C99.5918 234 49 183.184 49 120.5C49 57.8157 99.5918 7 162 7C224.408 7 275 57.8157 275 120.5Z" fill="#F9F9F9"/>
<path d="M14 198C14 199.105 13.1046 200 12 200C10.8954 200 10 199.105 10 198C10 196.895 10.8954 196 12 196C13.1046 196 14 196.895 14 198Z" fill="#DEDEDE"/>
<path d="M311 122C311 127.523 306.523 132 301 132C295.477 132 291 127.523 291 122C291 116.477 295.477 112 301 112C306.523 112 311 116.477 311 122Z" fill="#F8F8F8"/>
<path fill-rule="evenodd" clip-rule="evenodd" d="M301 130C305.418 130 309 126.418 309 122C309 117.582 305.418 114 301 114C296.582 114 293 117.582 293 122C293 126.418 296.582 130 301 130ZM301 132C306.523 132 311 127.523 311 122C311 116.477 306.523 112 301 112C295.477 112 291 116.477 291 122C291 127.523 295.477 132 301 132Z" fill="#D18EF7"/>
<path d="M256 185C256 189.971 251.971 194 247 194C242.029 194 238 189.971 238 185C238 180.029 242.029 176 247 176C251.971 176 256 180.029 256 185Z" fill="#F8F8F8"/>
<path fill-rule="evenodd" clip-rule="evenodd" d="M247 192C250.866 192 254 188.866 254 185C254 181.134 250.866 178 247 178C243.134 178 240 181.134 240 185C240 188.866 243.134 192 247 192ZM247 194C251.971 194 256 189.971 256 185C256 180.029 251.971 176 247 176C242.029 176 238 180.029 238 185C238 189.971 242.029 194 247 194Z" fill="#D18EF7"/>
<path d="M121 226C121 230.418 117.418 234 113 234C108.582 234 105 230.418 105 226C105 221.582 108.582 218 113 218C117.418 218 121 221.582 121 226Z" fill="#F8F8F8"/>
<path fill-rule="evenodd" clip-rule="evenodd" d="M113 232C116.314 232 119 229.314 119 226C119 222.686 116.314 220 113 220C109.686 220 107 222.686 107 226C107 229.314 109.686 232 113 232ZM113 234C117.418 234 121 230.418 121 226C121 221.582 117.418 218 113 218C108.582 218 105 221.582 105 226C105 230.418 108.582 234 113 234Z" fill="#D18EF7"/>
<path d="M204 211C204 214.866 200.866 218 197 218C193.134 218 190 214.866 190 211C190 207.134 193.134 204 197 204C200.866 204 204 207.134 204 211Z" fill="#F8F8F8"/>
<path fill-rule="evenodd" clip-rule="evenodd" d="M197 216C199.761 216 202 213.761 202 211C202 208.239 199.761 206 197 206C194.239 206 192 208.239 192 211C192 213.761 194.239 216 197 216ZM197 218C200.866 218 204 214.866 204 211C204 207.134 200.866 204 197 204C193.134 204 190 207.134 190 211C190 214.866 193.134 218 197 218Z" fill="#D18EF7"/>
<path d="M285 156.5C285 158.985 282.985 161 280.5 161C278.015 161 276 158.985 276 156.5C276 154.015 278.015 152 280.5 152C282.985 152 285 154.015 285 156.5Z" fill="#F8F8F8"/>
<path fill-rule="evenodd" clip-rule="evenodd" d="M280.5 159C281.881 159 283 157.881 283 156.5C283 155.119 281.881 154 280.5 154C279.119 154 278 155.119 278 156.5C278 157.881 279.119 159 280.5 159ZM280.5 161C282.985 161 285 158.985 285 156.5C285 154.015 282.985 152 280.5 152C278.015 152 276 154.015 276 156.5C276 158.985 278.015 161 280.5 161Z" fill="#D18EF7"/>
<path d="M152 227.5C152 229.985 149.985 232 147.5 232C145.015 232 143 229.985 143 227.5C143 225.015 145.015 223 147.5 223C149.985 223 152 225.015 152 227.5Z" fill="#F8F8F8"/>
<path fill-rule="evenodd" clip-rule="evenodd" d="M147.5 230C148.881 230 150 228.881 150 227.5C150 226.119 148.881 225 147.5 225C146.119 225 145 226.119 145 227.5C145 228.881 146.119 230 147.5 230ZM147.5 232C149.985 232 152 229.985 152 227.5C152 225.015 149.985 223 147.5 223C145.015 223 143 225.015 143 227.5C143 229.985 145.015 232 147.5 232Z" fill="#D18EF7"/>
<path d="M230 208.5C230 210.985 227.985 213 225.5 213C223.015 213 221 210.985 221 208.5C221 206.015 223.015 204 225.5 204C227.985 204 230 206.015 230 208.5Z" fill="#F8F8F8"/>
<path fill-rule="evenodd" clip-rule="evenodd" d="M225.5 211C226.881 211 228 209.881 228 208.5C228 207.119 226.881 206 225.5 206C224.119 206 223 207.119 223 208.5C223 209.881 224.119 211 225.5 211ZM225.5 213C227.985 213 230 210.985 230 208.5C230 206.015 227.985 204 225.5 204C223.015 204 221 206.015 221 208.5C221 210.985 223.015 213 225.5 213Z" fill="#D18EF7"/>
<path d="M316 94.5C316 96.9853 313.985 99 311.5 99C309.015 99 307 96.9853 307 94.5C307 92.0147 309.015 90 311.5 90C313.985 90 316 92.0147 316 94.5Z" fill="#F8F8F8"/>
<path fill-rule="evenodd" clip-rule="evenodd" d="M311.5 97C312.881 97 314 95.8807 314 94.5C314 93.1193 312.881 92 311.5 92C310.119 92 309 93.1193 309 94.5C309 95.8807 310.119 97 311.5 97ZM311.5 99C313.985 99 316 96.9853 316 94.5C316 92.0147 313.985 90 311.5 90C309.015 90 307 92.0147 307 94.5C307 96.9853 309.015 99 311.5 99Z" fill="#D18EF7"/>
<path d="M90 240.5C90 242.985 87.9853 245 85.5 245C83.0147 245 81 242.985 81 240.5C81 238.015 83.0147 236 85.5 236C87.9853 236 90 238.015 90 240.5Z" fill="#F8F8F8"/>
<path fill-rule="evenodd" clip-rule="evenodd" d="M85.5 243C86.8807 243 88 241.881 88 240.5C88 239.119 86.8807 238 85.5 238C84.1193 238 83 239.119 83 240.5C83 241.881 84.1193 243 85.5 243ZM85.5 245C87.9853 245 90 242.985 90 240.5C90 238.015 87.9853 236 85.5 236C83.0147 236 81 238.015 81 240.5C81 242.985 83.0147 245 85.5 245Z" fill="#D18EF7"/>
<path d="M67 208.5C67 210.985 64.9853 213 62.5 213C60.0147 213 58 210.985 58 208.5C58 206.015 60.0147 204 62.5 204C64.9853 204 67 206.015 67 208.5Z" fill="#F8F8F8"/>
<path fill-rule="evenodd" clip-rule="evenodd" d="M62.5 211C63.8807 211 65 209.881 65 208.5C65 207.119 63.8807 206 62.5 206C61.1193 206 60 207.119 60 208.5C60 209.881 61.1193 211 62.5 211ZM62.5 213C64.9853 213 67 210.985 67 208.5C67 206.015 64.9853 204 62.5 204C60.0147 204 58 206.015 58 208.5C58 210.985 60.0147 213 62.5 213Z" fill="#D18EF7"/>
<path d="M187 233C187 234.657 185.657 236 184 236C182.343 236 181 234.657 181 233C181 231.343 182.343 230 184 230C185.657 230 187 231.343 187 233Z" fill="#F8F8F8"/>
<path fill-rule="evenodd" clip-rule="evenodd" d="M184 235C185.105 235 186 234.105 186 233C186 231.895 185.105 231 184 231C182.895 231 182 231.895 182 233C182 234.105 182.895 235 184 235ZM184 236C185.657 236 187 234.657 187 233C187 231.343 185.657 230 184 230C182.343 230 181 231.343 181 233C181 234.657 182.343 236 184 236Z" fill="#D18EF7"/>
<path d="M268 164C268 165.657 266.657 167 265 167C263.343 167 262 165.657 262 164C262 162.343 263.343 161 265 161C266.657 161 268 162.343 268 164Z" fill="#F8F8F8"/>
<path fill-rule="evenodd" clip-rule="evenodd" d="M265 166C266.105 166 267 165.105 267 164C267 162.895 266.105 162 265 162C263.895 162 263 162.895 263 164C263 165.105 263.895 166 265 166ZM265 167C266.657 167 268 165.657 268 164C268 162.343 266.657 161 265 161C263.343 161 262 162.343 262 164C262 165.657 263.343 167 265 167Z" fill="#D18EF7"/>
<path d="M322 122C322 123.657 320.657 125 319 125C317.343 125 316 123.657 316 122C316 120.343 317.343 119 319 119C320.657 119 322 120.343 322 122Z" fill="#F8F8F8"/>
<path fill-rule="evenodd" clip-rule="evenodd" d="M319 124C320.105 124 321 123.105 321 122C321 120.895 320.105 120 319 120C317.895 120 317 120.895 317 122C317 123.105 317.895 124 319 124ZM319 125C320.657 125 322 123.657 322 122C322 120.343 320.657 119 319 119C317.343 119 316 120.343 316 122C316 123.657 317.343 125 319 125Z" fill="#D18EF7"/>
<path d="M89 220C89 221.657 87.6569 223 86 223C84.3431 223 83 221.657 83 220C83 218.343 84.3431 217 86 217C87.6569 217 89 218.343 89 220Z" fill="#F8F8F8"/>
<path fill-rule="evenodd" clip-rule="evenodd" d="M86 222C87.1046 222 88 221.105 88 220C88 218.895 87.1046 218 86 218C84.8954 218 84 218.895 84 220C84 221.105 84.8954 222 86 222ZM86 223C87.6569 223 89 221.657 89 220C89 218.343 87.6569 217 86 217C84.3431 217 83 218.343 83 220C83 221.657 84.3431 223 86 223Z" fill="#D18EF7"/>
<path d="M315 69C315 70.6569 313.657 72 312 72C310.343 72 309 70.6569 309 69C309 67.3431 310.343 66 312 66C313.657 66 315 67.3431 315 69Z" fill="#F8F8F8"/>
<path fill-rule="evenodd" clip-rule="evenodd" d="M312 71C313.105 71 314 70.1046 314 69C314 67.8954 313.105 67 312 67C310.895 67 310 67.8954 310 69C310 70.1046 310.895 71 312 71ZM312 72C313.657 72 315 70.6569 315 69C315 67.3431 313.657 66 312 66C310.343 66 309 67.3431 309 69C309 70.6569 310.343 72 312 72Z" fill="#D18EF7"/>
<path d="M43 187C43 190.866 39.866 194 36 194C32.134 194 29 190.866 29 187C29 183.134 32.134 180 36 180C39.866 180 43 183.134 43 187Z" fill="#F8F8F8"/>
<path fill-rule="evenodd" clip-rule="evenodd" d="M36 192C38.7614 192 41 189.761 41 187C41 184.239 38.7614 182 36 182C33.2386 182 31 184.239 31 187C31 189.761 33.2386 192 36 192ZM36 194C39.866 194 43 190.866 43 187C43 183.134 39.866 180 36 180C32.134 180 29 183.134 29 187C29 190.866 32.134 194 36 194Z" fill="#D18EF7"/>
<path d="M29 158C29 160.209 27.2091 162 25 162C22.7909 162 21 160.209 21 158C21 155.791 22.7909 154 25 154C27.2091 154 29 155.791 29 158Z" fill="#F8F8F8"/>
<path fill-rule="evenodd" clip-rule="evenodd" d="M25 161C26.6569 161 28 159.657 28 158C28 156.343 26.6569 155 25 155C23.3431 155 22 156.343 22 158C22 159.657 23.3431 161 25 161ZM25 162C27.2091 162 29 160.209 29 158C29 155.791 27.2091 154 25 154C22.7909 154 21 155.791 21 158C21 160.209 22.7909 162 25 162Z" fill="#D18EF7"/>
<path d="M35 148C35 149.105 34.1046 150 33 150C31.8954 150 31 149.105 31 148C31 146.895 31.8954 146 33 146C34.1046 146 35 146.895 35 148Z" fill="#F8F8F8"/>
<path fill-rule="evenodd" clip-rule="evenodd" d="M33 149C33.5523 149 34 148.552 34 148C34 147.448 33.5523 147 33 147C32.4477 147 32 147.448 32 148C32 148.552 32.4477 149 33 149ZM33 150C34.1046 150 35 149.105 35 148C35 146.895 34.1046 146 33 146C31.8954 146 31 146.895 31 148C31 149.105 31.8954 150 33 150Z" fill="#D18EF7"/>
<path d="M324 11C324 11 324.429 25.0289 329.049 30.7492C333.669 36.4694 345 37 345 37C345 37 333.669 37.5306 329.049 43.2508C324.429 48.9711 324 63 324 63C324 63 323.571 48.9711 318.951 43.2508C314.331 37.5306 303 37 303 37C303 37 314.331 36.4694 318.951 30.7492C323.571 25.0289 324 11 324 11Z" fill="white"/>
<path d="M16.5 158C16.5 158 16.8367 168.792 20.4669 173.192C24.097 177.592 33 178 33 178C33 178 24.097 178.408 20.4669 182.808C16.8367 187.208 16.5 198 16.5 198C16.5 198 16.1633 187.208 12.5331 182.808C8.90298 178.408 0 178 0 178C0 178 8.90298 177.592 12.5331 173.192C16.1633 168.792 16.5 158 16.5 158Z" fill="white"/>
</svg>
