<svg width="425" height="120" viewBox="0 0 425 120" fill="none" xmlns="http://www.w3.org/2000/svg">
<path d="M371.875 80.2511C396.195 80.2511 416.855 96.5347 424.317 119.185L425 119.185L425 119.98L0.764389 120V119.979H0C0 98.1044 17.0082 80.3586 38.0283 80.2516L38.1523 80.2512L38.2194 80.2511C38.4131 80.2511 38.6065 80.2527 38.7995 80.2556C38.835 79.9908 38.8721 79.7266 38.9107 79.4628C43.3271 49.3174 68.3718 26.2207 98.6061 26.2207C106.124 26.2207 113.32 27.6486 119.959 30.2576C120.206 30.3549 120.453 30.4539 120.699 30.5544C120.857 30.3341 121.016 30.1146 121.177 29.8961C134.514 11.7252 155.564 0 179.249 0C208.404 0 233.567 17.7666 245.265 43.4525C245.378 43.6997 245.489 43.9476 245.599 44.1962C245.802 44.0218 246.006 43.8489 246.211 43.6774C255.709 35.7388 267.777 30.9881 280.913 30.9881C311.519 30.9881 336.331 56.7792 336.331 88.5941C336.331 89.9911 336.283 91.3764 336.189 92.7484C336.164 93.1194 336.135 93.4893 336.103 93.8583C336.375 93.6186 336.65 93.3816 336.927 93.1473C346.462 85.0844 358.626 80.2511 371.875 80.2511Z" fill="#FDE4FA" fill-opacity="0.6"/>
<path d="M340.375 84.226C362.635 84.226 381.545 98.8812 388.375 119.267L389 119.267L389 119.982L0.69964 120V119.981H0C0 100.294 15.5675 84.3228 34.8071 84.2265L34.9206 84.2261L34.982 84.226C35.1593 84.226 35.3363 84.2274 35.513 84.2301C35.5455 83.9917 35.5794 83.7539 35.6147 83.5165C39.6571 56.3857 62.5803 35.5986 90.2536 35.5986C97.1343 35.5986 103.721 36.8837 109.797 39.2319C110.024 39.3194 110.25 39.4085 110.475 39.499C110.62 39.3007 110.766 39.1032 110.912 38.9065C123.12 22.5527 142.387 12 164.066 12C190.751 12 213.783 27.9899 224.49 51.1073C224.593 51.3297 224.695 51.5528 224.796 51.7766C224.981 51.6196 225.168 51.464 225.355 51.3097C234.049 44.1649 245.095 39.8893 257.118 39.8893C285.132 39.8893 307.842 63.1012 307.842 91.7347C307.842 92.9919 307.798 94.2387 307.712 95.4736C307.689 95.8074 307.662 96.1404 307.633 96.4725C307.882 96.2567 308.134 96.0434 308.387 95.8326C317.115 88.576 328.248 84.226 340.375 84.226Z" fill="#FDE4FA" fill-opacity="0.6"/>
</svg>
