<svg width="425" height="120" viewBox="0 0 425 120" fill="none" xmlns="http://www.w3.org/2000/svg">
<path d="M53.1249 80.2511C28.8054 80.2511 8.14468 96.5347 0.682739 119.185L3.05176e-05 119.185L0 119.98L424.236 120V119.979H425C425 98.1044 407.992 80.3586 386.972 80.2516L386.848 80.2512L386.781 80.2511C386.587 80.2511 386.393 80.2527 386.2 80.2556C386.165 79.9908 386.128 79.7266 386.089 79.4628C381.673 49.3174 356.628 26.2207 326.394 26.2207C318.876 26.2207 311.68 27.6486 305.041 30.2576C304.794 30.3549 304.547 30.4539 304.301 30.5544C304.143 30.3341 303.984 30.1146 303.823 29.8961C290.486 11.7252 269.436 0 245.751 0C216.596 0 191.433 17.7666 179.735 43.4525C179.622 43.6997 179.511 43.9476 179.401 44.1962C179.198 44.0218 178.994 43.8489 178.789 43.6774C169.291 35.7388 157.223 30.9881 144.087 30.9881C113.481 30.9881 88.669 56.7792 88.669 88.5941C88.669 89.9911 88.7169 91.3764 88.8109 92.7484C88.8363 93.1194 88.8651 93.4893 88.8973 93.8583C88.6247 93.6186 88.3499 93.3816 88.0728 93.1473C78.538 85.0844 66.3744 80.2511 53.1249 80.2511Z" fill="#FDE4FA" fill-opacity="0.6"/>
<path d="M84.6249 84.226C62.3654 84.226 43.4548 98.8812 36.6249 119.267L36.0001 119.267L36 119.982L424.3 120V119.981H425C425 100.294 409.432 84.3228 390.193 84.2265L390.079 84.2261L390.018 84.226C389.841 84.226 389.664 84.2274 389.487 84.2301C389.455 83.9917 389.421 83.7539 389.385 83.5165C385.343 56.3857 362.42 35.5986 334.746 35.5986C327.866 35.5986 321.279 36.8837 315.203 39.2319C314.976 39.3194 314.75 39.4085 314.525 39.499C314.38 39.3007 314.234 39.1032 314.088 38.9065C301.88 22.5527 282.613 12 260.934 12C234.249 12 211.217 27.9899 200.51 51.1073C200.407 51.3297 200.305 51.5528 200.204 51.7766C200.019 51.6196 199.832 51.464 199.645 51.3097C190.951 44.1649 179.905 39.8893 167.882 39.8893C139.868 39.8893 117.158 63.1012 117.158 91.7347C117.158 92.9919 117.202 94.2387 117.288 95.4736C117.311 95.8074 117.338 96.1404 117.367 96.4725C117.118 96.2567 116.866 96.0434 116.613 95.8326C107.885 88.576 96.7521 84.226 84.6249 84.226Z" fill="#FDE4FA" fill-opacity="0.6"/>
</svg>
