<svg width="172" height="160" viewBox="0 0 172 160" fill="none" xmlns="http://www.w3.org/2000/svg">
<path d="M129.542 37.5H79.2083L66.6249 25H35.1666C28.2458 25 22.5833 30.625 22.5833 37.5V112.5C22.5833 119.375 28.2458 125 35.1666 125H132.687C138.035 125 142.125 120.938 142.125 115.625V50C142.125 43.125 136.462 37.5 129.542 37.5Z" fill="#9D94E0"/>
<path d="M144.5 40.5C137.625 40.5 44.5 40.5 44.5 40.5C37.625 40.5 32 46.125 32 53L21 113C21 119.875 26.625 125.5 33.5 125.5H133.5C140.375 125.5 146 119.875 146 113C146 113 157 59.875 157 53C157 46.125 151.375 40.5 144.5 40.5Z" fill="#BDB0F5"/>
<path d="M156.5 22C156.5 22 156.816 31.9821 160.226 36.0523C163.637 40.1225 172 40.5 172 40.5C172 40.5 163.637 40.8775 160.226 44.9477C156.816 49.0179 156.5 59 156.5 59C156.5 59 156.184 49.0179 152.774 44.9477C149.363 40.8775 141 40.5 141 40.5C141 40.5 149.363 40.1225 152.774 36.0523C156.184 31.9821 156.5 22 156.5 22Z" fill="#FDE4FA"/>
<path d="M23.5 101C23.5 101 23.8163 110.982 27.2265 115.052C30.6366 119.122 39 119.5 39 119.5C39 119.5 30.6366 119.878 27.2265 123.948C23.8163 128.018 23.5 138 23.5 138C23.5 138 23.1837 128.018 19.7735 123.948C16.3634 119.878 8 119.5 8 119.5C8 119.5 16.3634 119.122 19.7735 115.052C23.1837 110.982 23.5 101 23.5 101Z" fill="#FDE4FA"/>
<path d="M8 96C8 96 8.16326 101.396 9.92333 103.596C11.6834 105.796 16 106 16 106C16 106 11.6834 106.204 9.92333 108.404C8.16326 110.604 8 116 8 116C8 116 7.83674 110.604 6.07667 108.404C4.3166 106.204 0 106 0 106C0 106 4.3166 105.796 6.07667 103.596C7.83674 101.396 8 96 8 96Z" fill="#FDE4FA"/>
</svg>
