<svg width="196" height="175" viewBox="0 0 196 175" fill="none" xmlns="http://www.w3.org/2000/svg">
<path fill-rule="evenodd" clip-rule="evenodd" d="M176.32 16.6441C171.675 11.999 166.16 8.31472 160.09 5.80193C154.021 3.28913 147.515 1.99705 140.946 1.99952C134.377 2.00198 127.873 3.29895 121.805 5.8163C115.739 8.33299 110.228 12.0201 105.587 16.667C105.586 16.6682 105.584 16.6695 105.583 16.6707L97.8621 24.4858L90.2033 16.6855L90.1905 16.6726L90.1627 16.6449C90.1627 16.6449 90.1627 16.6449 90.1627 16.6449C85.5198 12.002 80.0078 8.31894 73.9415 5.80619C67.8752 3.29343 61.3734 2.00013 54.8073 2.00013C48.2411 2.00013 41.7393 3.29343 35.673 5.80619C29.6067 8.31895 24.0947 12.002 19.4518 16.6449L16.6446 19.4521C7.26782 28.8289 2 41.5466 2 54.8074C2 68.0682 7.26782 80.7858 16.6446 90.1627L90.7501 164.267L97.7181 171.568L97.8842 171.401L98.0638 171.581L104.508 164.782L179.126 90.1631M98.1023 174.448L97.891 174.237L97.8856 174.231L97.8798 174.237L97.6861 174.431L89.3194 165.665L15.2304 91.5769C5.47853 81.825 0 68.5986 0 54.8074C0 41.0162 5.47853 27.7898 15.2304 18.0379L18.0376 15.2307C22.8662 10.402 28.5987 6.5717 34.9076 3.95843C41.2166 1.34516 47.9785 0.000130624 54.8073 0.000130624C61.636 0.000130624 68.3979 1.34516 74.7069 3.95843C81.0158 6.5717 86.7483 10.402 91.5769 15.2307L91.6176 15.2713L97.8663 21.6355L104.168 15.2575C108.995 10.4229 114.728 6.58702 121.038 3.96898C127.349 1.35093 134.113 0.00208087 140.945 -0.000484615C147.777 -0.0030501 154.543 1.34072 160.855 3.95402C167.168 6.56733 172.903 10.3989 177.734 15.2299L180.542 18.0367C190.279 27.7963 195.747 41.0198 195.747 54.8062C195.747 68.5926 190.279 81.816 180.542 91.5757L105.941 166.177L98.1023 174.448ZM97.8856 158.675L23.008 83.7977L24.4222 82.3834L97.8856 155.847L171.347 82.3834L172.762 83.7976L97.8856 158.675ZM171.349 27.2289C178.652 34.5488 182.753 44.4666 182.753 54.8065C182.752 65.1464 178.651 75.0639 171.347 82.3834L172.763 83.7961C180.441 76.1016 184.752 65.6761 184.753 54.8066C184.753 43.937 180.442 33.5112 172.765 25.8163L169.956 23.0079C169.956 23.0079 169.956 23.0079 169.956 23.0079C166.149 19.2007 161.629 16.1806 156.655 14.1202C151.68 12.0597 146.349 10.9992 140.965 10.9992C135.58 10.9992 130.249 12.0597 125.274 14.1202C120.3 16.1806 115.78 19.2007 111.973 23.0079L97.8428 37.3087L83.7833 22.993L83.7763 22.9861C76.0854 15.3067 65.6599 10.9953 54.7914 10.9994C43.923 11.0035 33.5009 15.3227 25.8157 23.0078C25.8157 23.0078 25.8156 23.0078 25.8157 23.0078L23.0081 25.815C15.3192 33.504 10.9995 43.9325 10.9995 54.8064C10.9995 65.6802 15.3191 76.1087 23.008 83.7977L24.4222 82.3834C17.1083 75.0695 12.9995 65.1498 12.9995 54.8064C12.9995 44.463 17.1083 34.5432 24.4222 27.2293L27.2298 24.4221C34.5401 17.1118 44.4539 13.0033 54.7922 12.9994C65.1305 12.9955 75.0474 17.0966 82.3632 24.4014L97.8383 40.1585L113.387 24.4221C117.009 20.8006 121.308 17.9279 126.04 15.9679C130.772 14.008 135.843 12.9992 140.965 12.9992C146.086 12.9992 151.158 14.008 155.889 15.9679C160.621 17.9279 164.92 20.8006 168.542 24.4221L171.349 27.2289ZM179.127 90.1614C188.49 80.7769 193.747 68.0622 193.747 54.8062C193.747 41.5498 188.489 28.8348 179.127 19.4501C179.126 19.4499 179.126 19.4496 179.126 19.4493L176.32 16.6441" fill="white"/>
</svg>
