<svg width="1081" height="976" viewBox="0 0 1081 976" fill="none" xmlns="http://www.w3.org/2000/svg">
<path d="M573.999 86.6112L573.994 86.6169L540.464 120.908L507.219 86.6968L507.209 86.6871L506.986 86.4616L505.92 87.5167L506.986 86.4616C480.33 59.5276 448.683 38.1615 413.852 23.584C379.022 9.00657 341.69 1.50343 303.989 1.50343C266.288 1.50343 228.956 9.00657 194.126 23.584C159.295 38.1615 127.649 59.5276 100.992 86.4616L85.5757 102.038C31.7412 156.433 1.5 230.205 1.5 307.125C1.5 384.044 31.7412 457.816 85.5757 512.211L492.432 923.295L492.456 923.32L538.38 971.938L539.446 973.066L540.537 971.962L540.567 971.932L540.689 972.055L541.784 973.162L542.849 972.026L585.871 926.161L585.899 926.132L995.56 512.204L995.561 512.203C1049.31 457.765 1079.5 384.01 1079.5 307.118C1079.5 230.226 1049.31 156.471 995.561 102.033L995.56 102.032L980.144 86.4571C953.474 59.5104 921.81 38.1371 886.961 23.5595C852.111 8.98179 814.759 1.48571 777.04 1.50002C739.321 1.51433 701.974 9.03875 667.136 23.6429C632.297 38.247 600.648 59.6443 573.999 86.6112ZM541.379 226.888L626.763 139.574C646.513 119.619 669.959 103.79 695.761 92.9911C721.564 82.1921 749.218 76.6342 777.145 76.6342C805.073 76.6342 832.727 82.1921 858.53 92.9911C884.332 103.79 907.778 119.619 927.527 139.574L928.594 138.519L927.527 139.574L942.943 155.148C982.769 195.483 1005.14 250.137 1005.14 307.12C1005.13 364.103 982.763 418.755 942.934 459.088L540.566 865.652L138.187 459.087C98.3008 418.785 75.8901 364.121 75.8901 307.119C75.8901 250.117 98.3008 195.453 138.187 155.151L153.606 139.574L152.54 138.519L153.606 139.574C193.473 99.293 247.534 76.6567 303.907 76.6353C360.277 76.6139 414.353 99.207 454.249 139.454C454.251 139.456 454.253 139.458 454.255 139.46L539.231 226.885L540.303 227.989L541.379 226.888Z" stroke="#F976BD" stroke-width="3"/>
</svg>
